<svg xmlns="http://www.w3.org/2000/svg" version="1.1" width="1024" height="1024">
<rect x="0" y="0" width="1024" height="1024" fill="#868686" />
<g transform="scale(5.120000) translate(0.5 0.5)">
<ellipse fill="#ff0000" fill-opacity="0.501961" cx="101" cy="100" rx="56" ry="55" />
<ellipse fill="#ffffff" fill-opacity="0.501961" cx="0" cy="0" rx="54" ry="54" />
<ellipse fill="#ffffff" fill-opacity="0.501961" cx="0" cy="199" rx="53" ry="53" />
<ellipse fill="#ffffff" fill-opacity="0.501961" cx="199" cy="0" rx="53" ry="53" />
<ellipse fill="#ffffff" fill-opacity="0.501961" cx="199" cy="199" rx="52" ry="54" />
<ellipse fill="#0000ff" fill-opacity="0.501961" cx="162" cy="102" rx="13" ry="49" />
<ellipse fill="#0000ff" fill-opacity="0.501961" cx="101" cy="162" rx="49" ry="14" />
<ellipse fill="#0000ff" fill-opacity="0.501961" cx="38" cy="98" rx="14" ry="50" />
<ellipse fill="#ff0000" fill-opacity="0.501961" cx="101" cy="101" rx="55" ry="53" />
<ellipse fill="#0000ff" fill-opacity="0.501961" cx="99" cy="38" rx="49" ry="14" />
<ellipse fill="#00ff00" fill-opacity="0.501961" cx="183" cy="99" rx="11" ry="47" />
<ellipse fill="#00ff00" fill-opacity="0.501961" cx="17" cy="100" rx="11" ry="48" />
<ellipse fill="#00ff00" fill-opacity="0.501961" cx="100" cy="183" rx="48" ry="11" />
<ellipse fill="#00ff00" fill-opacity="0.501961" cx="99" cy="17" rx="47" ry="11" />
<ellipse fill="#ffffff" fill-opacity="0.501961" cx="89" cy="0" rx="199" ry="10" />
<ellipse fill="#ffffff" fill-opacity="0.501961" cx="0" cy="109" rx="10" ry="199" />
<ellipse fill="#007c76" fill-opacity="0.501961" cx="156" cy="151" rx="21" ry="23" />
<ellipse fill="#0000ff" fill-opacity="0.501961" cx="149" cy="56" rx="13" ry="15" />
<ellipse fill="#00ff00" fill-opacity="0.501961" cx="41" cy="39" rx="15" ry="15" />
<ellipse fill="#ffffff" fill-opacity="0.501961" cx="175" cy="199" rx="55" ry="19" />
<ellipse fill="#0000ff" fill-opacity="0.501961" cx="54" cy="53" rx="13" ry="15" />
<ellipse fill="#ffffff" fill-opacity="0.501961" cx="33" cy="199" rx="48" ry="17" />
<ellipse fill="#ffffff" fill-opacity="0.501961" cx="199" cy="36" rx="15" ry="52" />
<ellipse fill="#0000ff" fill-opacity="0.501961" cx="53" cy="146" rx="14" ry="14" />
<ellipse fill="#0000ff" fill-opacity="0.501961" cx="97" cy="35" rx="39" ry="12" />
<ellipse fill="#0000ff" fill-opacity="0.501961" cx="165" cy="97" rx="13" ry="34" />
<ellipse fill="#0000ff" fill-opacity="0.501961" cx="35" cy="101" rx="12" ry="37" />
<ellipse fill="#00ff00" fill-opacity="0.501961" cx="45" cy="165" rx="15" ry="13" />
<ellipse fill="#ff0000" fill-opacity="0.501961" cx="97" cy="77" rx="42" ry="32" />
<ellipse fill="#0000ff" fill-opacity="0.501961" cx="96" cy="166" rx="35" ry="12" />
<ellipse fill="#00ff00" fill-opacity="0.501961" cx="156" cy="35" rx="15" ry="13" />
<ellipse fill="#ffffff" fill-opacity="0.501961" cx="199" cy="169" rx="16" ry="55" />
<ellipse fill="#00ff00" fill-opacity="0.501961" cx="29" cy="148" rx="9" ry="15" />
<ellipse fill="#00ff00" fill-opacity="0.501961" cx="171" cy="53" rx="9" ry="14" />
<ellipse fill="#0000ff" fill-opacity="0.501961" cx="146" cy="145" rx="14" ry="14" />
<ellipse fill="#00ff00" fill-opacity="0.501961" cx="100" cy="15" rx="39" ry="9" />
<ellipse fill="#00ff00" fill-opacity="0.501961" cx="15" cy="100" rx="8" ry="40" />
<ellipse fill="#00ff00" fill-opacity="0.501961" cx="146" cy="172" rx="15" ry="8" />
<ellipse fill="#ffffff" fill-opacity="0.501961" cx="11" cy="10" rx="35" ry="30" />
<ellipse fill="#00ff00" fill-opacity="0.501961" cx="28" cy="55" rx="8" ry="16" />
<ellipse fill="#ffffff" fill-opacity="0.501961" cx="179" cy="0" rx="42" ry="30" />
<ellipse fill="#00ff00" fill-opacity="0.501961" cx="57" cy="26" rx="15" ry="8" />
<ellipse fill="#00ff00" fill-opacity="0.501961" cx="170" cy="149" rx="10" ry="14" />
<ellipse fill="#ff0000" fill-opacity="0.501961" cx="102" cy="128" rx="42" ry="27" />
<ellipse fill="#ffffff" fill-opacity="0.501961" cx="0" cy="171" rx="25" ry="40" />
<ellipse fill="#00ff00" fill-opacity="0.501961" cx="186" cy="99" rx="9" ry="34" />
<ellipse fill="#ffffff" fill-opacity="0.501961" cx="99" cy="199" rx="185" ry="6" />
<ellipse fill="#00ff00" fill-opacity="0.501961" cx="98" cy="185" rx="38" ry="9" />
<ellipse fill="#00ff00" fill-opacity="0.501961" cx="144" cy="27" rx="15" ry="8" />
<ellipse fill="#0000ff" fill-opacity="0.501961" cx="139" cy="47" rx="14" ry="11" />
<ellipse fill="#ffffff" fill-opacity="0.501961" cx="199" cy="84" rx="5" ry="199" />
<ellipse fill="#00ff00" fill-opacity="0.501961" cx="58" cy="175" rx="18" ry="7" />
<ellipse fill="#0000ff" fill-opacity="0.501961" cx="61" cy="153" rx="16" ry="10" />
<ellipse fill="#ffffff" fill-opacity="0.501961" cx="38" cy="0" rx="38" ry="19" />
<ellipse fill="#ffffff" fill-opacity="0.501961" cx="0" cy="41" rx="19" ry="33" />
<ellipse fill="#0000ff" fill-opacity="0.501961" cx="158" cy="130" rx="11" ry="17" />
<ellipse fill="#00ff00" fill-opacity="0.501961" cx="156" cy="165" rx="11" ry="10" />
<ellipse fill="#ffffff" fill-opacity="0.501961" cx="190" cy="185" rx="29" ry="31" />
<ellipse fill="#ff0000" fill-opacity="0.501961" cx="75" cy="99" rx="30" ry="42" />
<ellipse fill="#0000ff" fill-opacity="0.501961" cx="139" cy="153" rx="14" ry="11" />
<ellipse fill="#ff0000" fill-opacity="0.501961" cx="123" cy="101" rx="32" ry="43" />
<ellipse fill="#ffffff" fill-opacity="0.501961" cx="19" cy="189" rx="30" ry="23" />
<ellipse fill="#0000ff" fill-opacity="0.501961" cx="60" cy="48" rx="16" ry="10" />
<ellipse fill="#00ff00" fill-opacity="0.501961" cx="13" cy="101" rx="8" ry="29" />
<ellipse fill="#0000ff" fill-opacity="0.501961" cx="102" cy="34" rx="27" ry="12" />
<ellipse fill="#0000ff" fill-opacity="0.501961" cx="44" cy="135" rx="11" ry="14" />
<ellipse fill="#0000ff" fill-opacity="0.501961" cx="43" cy="67" rx="11" ry="16" />
<ellipse fill="#ffffff" fill-opacity="0.501961" cx="192" cy="25" rx="19" ry="34" />
<ellipse fill="#00ff00" fill-opacity="0.501961" cx="177" cy="139" rx="8" ry="14" />
<ellipse fill="#00ff00" fill-opacity="0.501961" cx="23" cy="137" rx="8" ry="15" />
<ellipse fill="#0000ff" fill-opacity="0.501961" cx="154" cy="63" rx="11" ry="14" />
<ellipse fill="#00ff00" fill-opacity="0.501961" cx="177" cy="64" rx="7" ry="18" />
<ellipse fill="#0000ff" fill-opacity="0.501961" cx="166" cy="101" rx="12" ry="32" />
<ellipse fill="#0000ff" fill-opacity="0.501961" cx="100" cy="165" rx="38" ry="11" />
<ellipse fill="#0000ff" fill-opacity="0.501961" cx="33" cy="102" rx="11" ry="28" />
<ellipse fill="#00ff00" fill-opacity="0.501961" cx="40" cy="38" rx="9" ry="9" />
<ellipse fill="#00ff00" fill-opacity="0.501961" cx="138" cy="177" rx="14" ry="8" />
<ellipse fill="#00ff00" fill-opacity="0.501961" cx="99" cy="12" rx="27" ry="7" />
<ellipse fill="#ffffff" fill-opacity="0.501961" cx="100" cy="0" rx="188" ry="6" />
<ellipse fill="#ffffff" fill-opacity="0.501961" cx="0" cy="113" rx="6" ry="199" />
<ellipse fill="#00ff00" fill-opacity="0.501961" cx="38" cy="160" rx="9" ry="10" />
<ellipse fill="#00ff00" fill-opacity="0.501961" cx="162" cy="39" rx="9" ry="11" />
<ellipse fill="#ffffff" fill-opacity="0.501961" cx="156" cy="2" rx="34" ry="13" />
<ellipse fill="#ffffff" fill-opacity="0.501961" cx="184" cy="12" rx="29" ry="26" />
<ellipse fill="#00ff00" fill-opacity="0.501961" cx="25" cy="58" rx="7" ry="15" />
<ellipse fill="#00ff00" fill-opacity="0.501961" cx="98" cy="187" rx="30" ry="8" />
<ellipse fill="#00ff00" fill-opacity="0.501961" cx="184" cy="104" rx="8" ry="38" />
<ellipse fill="#00ff00" fill-opacity="0.501961" cx="137" cy="22" rx="16" ry="7" />
<ellipse fill="#ff0000" fill-opacity="0.501961" cx="102" cy="78" rx="44" ry="32" />
<ellipse fill="#00ff00" fill-opacity="0.501961" cx="163" cy="159" rx="9" ry="9" />
<ellipse fill="#00ff00" fill-opacity="0.501961" cx="66" cy="22" rx="15" ry="9" />
<ellipse fill="#ffffff" fill-opacity="0.501961" cx="11" cy="17" rx="24" ry="32" />
<ellipse fill="#0000ff" fill-opacity="0.501961" cx="143" cy="51" rx="14" ry="11" />
<ellipse fill="#ffffff" fill-opacity="0.501961" cx="94" cy="197" rx="146" ry="3" />
<ellipse fill="#00ff00" fill-opacity="0.501961" cx="32" cy="152" rx="9" ry="10" />
<ellipse fill="#ffffff" fill-opacity="0.501961" cx="199" cy="169" rx="24" ry="31" />
<ellipse fill="#ffffff" fill-opacity="0.501961" cx="167" cy="199" rx="30" ry="23" />
<ellipse fill="#00ff00" fill-opacity="0.501961" cx="53" cy="172" rx="12" ry="8" />
<ellipse fill="#ffffff" fill-opacity="0.501961" cx="0" cy="180" rx="35" ry="31" />
<ellipse fill="#ffffff" fill-opacity="0.501961" cx="47" cy="199" rx="31" ry="14" />
<ellipse fill="#0000ff" fill-opacity="0.501961" cx="153" cy="140" rx="11" ry="13" />
<ellipse fill="#0000ff" fill-opacity="0.501961" cx="132" cy="156" rx="17" ry="9" />
<ellipse fill="#00ff00" fill-opacity="0.501961" cx="169" cy="48" rx="9" ry="10" />
<ellipse fill="#0000ff" fill-opacity="0.501961" cx="77" cy="38" rx="16" ry="11" />
<ellipse fill="#00ff00" fill-opacity="0.501961" cx="47" cy="33" rx="11" ry="8" />
<ellipse fill="#0000ff" fill-opacity="0.501961" cx="51" cy="56" rx="12" ry="12" />
<ellipse fill="#ffffff" fill-opacity="0.501961" cx="197" cy="113" rx="3" ry="156" />
<ellipse fill="#0000ff" fill-opacity="0.501961" cx="54" cy="148" rx="12" ry="12" />
<ellipse fill="#0000ff" fill-opacity="0.501961" cx="130" cy="41" rx="15" ry="11" />
<ellipse fill="#00ff00" fill-opacity="0.501961" cx="32" cy="48" rx="9" ry="10" />
<ellipse fill="#ffffff" fill-opacity="0.501961" cx="0" cy="146" rx="13" ry="26" />
<ellipse fill="#0000ff" fill-opacity="0.501961" cx="100" cy="167" rx="26" ry="11" />
<ellipse fill="#ffffff" fill-opacity="0.501961" cx="198" cy="51" rx="10" ry="32" />
<ellipse fill="#ff0000" fill-opacity="0.501961" cx="77" cy="101" rx="31" ry="44" />
<ellipse fill="#00ff00" fill-opacity="0.501961" cx="17" cy="84" rx="7" ry="27" />
<ellipse fill="#0000ff" fill-opacity="0.501961" cx="166" cy="99" rx="12" ry="25" />
<ellipse fill="#ffffff" fill-opacity="0.501961" cx="33" cy="5" rx="29" ry="18" />
<ellipse fill="#0000ff" fill-opacity="0.501961" cx="69" cy="158" rx="18" ry="9" />
<ellipse fill="#00ff00" fill-opacity="0.501961" cx="66" cy="179" rx="18" ry="7" />
<ellipse fill="#ffffff" fill-opacity="0.501961" cx="34" cy="199" rx="25" ry="25" />
<ellipse fill="#ff0000" fill-opacity="0.501961" cx="133" cy="99" rx="22" ry="36" />
<ellipse fill="#0000ff" fill-opacity="0.501961" cx="38" cy="78" rx="10" ry="19" />
<ellipse fill="#0000ff" fill-opacity="0.501961" cx="161" cy="75" rx="10" ry="18" />
<ellipse fill="#00ff00" fill-opacity="0.501961" cx="169" cy="151" rx="6" ry="13" />
<ellipse fill="#00ff00" fill-opacity="0.501961" cx="102" cy="14" rx="27" ry="9" />
<ellipse fill="#ffffff" fill-opacity="0.501961" cx="183" cy="193" rx="31" ry="29" />
<ellipse fill="#ff0000" fill-opacity="0.501961" cx="100" cy="128" rx="39" ry="27" />
<ellipse fill="#00ff00" fill-opacity="0.501961" cx="126" cy="182" rx="18" ry="7" />
<ellipse fill="#0000ff" fill-opacity="0.501961" cx="36" cy="109" rx="10" ry="31" />
<ellipse fill="#00ff00" fill-opacity="0.501961" cx="18" cy="126" rx="7" ry="18" />
<ellipse fill="#ffffff" fill-opacity="0.501961" cx="8" cy="36" rx="9" ry="32" />
<ellipse fill="#00ff00" fill-opacity="0.501961" cx="181" cy="73" rx="7" ry="19" />
<ellipse fill="#ffffff" fill-opacity="0.501961" cx="199" cy="146" rx="11" ry="29" />
<ellipse fill="#00ff00" fill-opacity="0.501961" cx="44" cy="165" rx="11" ry="7" />
<ellipse fill="#0000ff" fill-opacity="0.501961" cx="97" cy="34" rx="29" ry="11" />
<ellipse fill="#00ff00" fill-opacity="0.501961" cx="53" cy="28" rx="12" ry="7" />
<ellipse fill="#00ff00" fill-opacity="0.501961" cx="153" cy="167" rx="7" ry="10" />
<ellipse fill="#00ff00" fill-opacity="0.501961" cx="147" cy="28" rx="14" ry="6" />
<ellipse fill="#ff0000" fill-opacity="0.501961" cx="100" cy="71" rx="41" ry="25" />
<ellipse fill="#00ff00" fill-opacity="0.501961" cx="158" cy="37" rx="12" ry="5" />
<ellipse fill="#00ff00" fill-opacity="0.501961" cx="178" cy="137" rx="7" ry="14" />
<ellipse fill="#0000ff" fill-opacity="0.501961" cx="157" cy="67" rx="10" ry="16" />
<ellipse fill="#ffffff" fill-opacity="0.501961" cx="167" cy="4" rx="28" ry="20" />
<ellipse fill="#ffffff" fill-opacity="0.501961" cx="146" cy="197" rx="23" ry="10" />
<ellipse fill="#0000ff" fill-opacity="0.501961" cx="63" cy="45" rx="13" ry="11" />
<ellipse fill="#0000ff" fill-opacity="0.501961" cx="157" cy="133" rx="9" ry="17" />
<ellipse fill="#0000ff" fill-opacity="0.501961" cx="48" cy="141" rx="13" ry="9" />
<ellipse fill="#00ff00" fill-opacity="0.501961" cx="13" cy="100" rx="8" ry="26" />
<ellipse fill="#0000ff" fill-opacity="0.501961" cx="144" cy="148" rx="10" ry="11" />
<ellipse fill="#00ff00" fill-opacity="0.501961" cx="26" cy="143" rx="6" ry="14" />
</g>
</svg>