<svg xmlns="http://www.w3.org/2000/svg" version="1.1" width="1024" height="1024">
<rect x="0" y="0" width="1024" height="1024" fill="#868686" />
<g transform="scale(5.120000) translate(0.5 0.5)">
<polygon fill="#ff0000" fill-opacity="0.501961" points="141,173 11,95 147,23" />
<polygon fill="#0000ff" fill-opacity="0.501961" points="43,42 63,176 15,108" />
<polygon fill="#0000ff" fill-opacity="0.501961" points="87,17 185,116 158,38" />
<polygon fill="#0000ff" fill-opacity="0.501961" points="54,171 183,117 135,177" />
<polygon fill="#ffffff" fill-opacity="0.501961" points="-16,-1 -9,79 80,-9" />
<polygon fill="#ffffff" fill-opacity="0.501961" points="-15,199 85,215 -16,111" />
<polygon fill="#ffffff" fill-opacity="0.501961" points="128,-3 215,87 209,-8" />
<polygon fill="#ffffff" fill-opacity="0.501961" points="215,215 113,215 201,130" />
<polygon fill="#00ff00" fill-opacity="0.501961" points="165,24 102,1 212,105" />
<polygon fill="#ff0000" fill-opacity="0.501961" points="173,103 61,37 64,162" />
<polygon fill="#00ff00" fill-opacity="0.501961" points="21,50 40,183 -2,105" />
<polygon fill="#0000ff" fill-opacity="0.501961" points="23,82 127,26 61,24" />
<polygon fill="#00ff00" fill-opacity="0.501961" points="174,167 38,174 104,200" />
<polygon fill="#00ff00" fill-opacity="0.501961" points="10,66 42,18 135,-7" />
<polygon fill="#00ff00" fill-opacity="0.501961" points="197,123 187,60 158,181" />
<polygon fill="#0000ff" fill-opacity="0.501961" points="179,115 139,170 166,50" />
<polygon fill="#0000ff" fill-opacity="0.501961" points="79,178 22,123 131,172" />
<polygon fill="#00ff00" fill-opacity="0.501961" points="108,192 50,184 10,136" />
<polygon fill="#ffffff" fill-opacity="0.501961" points="211,-12 213,27 78,0" />
<polygon fill="#ffffff" fill-opacity="0.501961" points="30,-15 -11,-16 -2,138" />
<polygon fill="#ff0000" fill-opacity="0.501961" points="120,158 155,66 81,42" />
<polygon fill="#ffffff" fill-opacity="0.501961" points="-9,200 -9,149 121,215" />
<polygon fill="#0000ff" fill-opacity="0.501961" points="69,26 180,80 146,30" />
<polygon fill="#0000ff" fill-opacity="0.501961" points="61,27 21,97 35,144" />
<polygon fill="#00ff00" fill-opacity="0.501961" points="174,35 57,15 124,5" />
<polygon fill="#ffffff" fill-opacity="0.501961" points="199,110 200,213 153,211" />
<polygon fill="#00ff00" fill-opacity="0.501961" points="95,194 150,184 195,131" />
<polygon fill="#ffffff" fill-opacity="0.501961" points="-16,-12 -2,44 124,-16" />
<polygon fill="#ff0000" fill-opacity="0.501961" points="117,162 41,122 74,45" />
<polygon fill="#00ff00" fill-opacity="0.501961" points="54,16 7,118 10,64" />
<polygon fill="#ffffff" fill-opacity="0.501961" points="215,158 166,-16 215,-16" />
<polygon fill="#ffffff" fill-opacity="0.501961" points="215,202 201,171 87,200" />
<polygon fill="#0000ff" fill-opacity="0.501961" points="71,172 133,173 174,128" />
<polygon fill="#0000ff" fill-opacity="0.501961" points="66,28 129,25 27,73" />
<polygon fill="#00ff00" fill-opacity="0.501961" points="193,129 188,58 154,20" />
<polygon fill="#ffffff" fill-opacity="0.501961" points="-13,202 38,215 -7,73" />
<polygon fill="#0000ff" fill-opacity="0.501961" points="41,154 24,98 101,179" />
<polygon fill="#ff0000" fill-opacity="0.501961" points="88,157 147,136 154,78" />
<polygon fill="#0000ff" fill-opacity="0.501961" points="178,83 160,151 149,40" />
<polygon fill="#00ff00" fill-opacity="0.501961" points="6,108 82,194 20,153" />
<polygon fill="#ffffff" fill-opacity="0.501961" points="195,57 129,-4 207,1" />
<polygon fill="#00ff00" fill-opacity="0.501961" points="116,5 56,14 12,56" />
<polygon fill="#00ff00" fill-opacity="0.501961" points="181,152 136,186 195,95" />
<polygon fill="#ff0000" fill-opacity="0.501961" points="122,47 153,80 40,98" />
<polygon fill="#ffffff" fill-opacity="0.501961" points="199,204 204,142 115,206" />
<polygon fill="#00ff00" fill-opacity="0.501961" points="112,8 165,29 190,72" />
<polygon fill="#0000ff" fill-opacity="0.501961" points="22,97 59,161 35,55" />
<polygon fill="#ffffff" fill-opacity="0.501961" points="215,106 192,141 198,43" />
<polygon fill="#00ff00" fill-opacity="0.501961" points="26,151 22,77 5,90" />
<polygon fill="#ffffff" fill-opacity="0.501961" points="37,215 26,188 127,197" />
<polygon fill="#ff0000" fill-opacity="0.501961" points="45,95 61,60 60,142" />
<polygon fill="#ffffff" fill-opacity="0.501961" points="-3,94 -16,-4 52,-14" />
<polygon fill="#0000ff" fill-opacity="0.501961" points="178,97 104,176 164,147" />
<polygon fill="#0000ff" fill-opacity="0.501961" points="144,34 98,19 177,98" />
<polygon fill="#ffffff" fill-opacity="0.501961" points="106,-16 51,4 183,6" />
<polygon fill="#00ff00" fill-opacity="0.501961" points="90,194 39,175 152,179" />
<polygon fill="#0000ff" fill-opacity="0.501961" points="33,100 46,43 87,23" />
<polygon fill="#0000ff" fill-opacity="0.501961" points="103,178 51,149 151,160" />
<polygon fill="#ff0000" fill-opacity="0.501961" points="81,154 139,142 77,47" />
<polygon fill="#ffffff" fill-opacity="0.501961" points="-6,207 71,215 -16,106" />
<polygon fill="#00ff00" fill-opacity="0.501961" points="32,31 75,7 140,15" />
<polygon fill="#00ff00" fill-opacity="0.501961" points="169,45 195,96 186,140" />
<polygon fill="#00ff00" fill-opacity="0.501961" points="4,97 67,16 27,38" />
<polygon fill="#0000ff" fill-opacity="0.501961" points="43,46 91,22 133,44" />
<polygon fill="#ff0000" fill-opacity="0.501961" points="154,117 122,152 154,84" />
<polygon fill="#ffffff" fill-opacity="0.501961" points="84,-9 -16,70 -16,-2" />
<polygon fill="#ffffff" fill-opacity="0.501961" points="8,183 4,37 -16,112" />
<polygon fill="#ff0000" fill-opacity="0.501961" points="139,58 58,59 105,44" />
<polygon fill="#0000ff" fill-opacity="0.501961" points="130,29 177,86 172,128" />
<polygon fill="#00ff00" fill-opacity="0.501961" points="181,53 90,7 146,15" />
<polygon fill="#00ff00" fill-opacity="0.501961" points="120,195 18,147 63,188" />
<polygon fill="#00ff00" fill-opacity="0.501961" points="146,183 88,193 186,143" />
<polygon fill="#ff0000" fill-opacity="0.501961" points="47,87 63,141 94,155" />
<polygon fill="#0000ff" fill-opacity="0.501961" points="89,160 23,106 31,137" />
<polygon fill="#00ff00" fill-opacity="0.501961" points="186,65 195,109 166,167" />
<polygon fill="#0000ff" fill-opacity="0.501961" points="67,169 129,156 41,151" />
<polygon fill="#ffffff" fill-opacity="0.501961" points="203,110 209,205 145,215" />
<polygon fill="#ffffff" fill-opacity="0.501961" points="215,8 202,84 155,3" />
<polygon fill="#ffffff" fill-opacity="0.501961" points="132,215 143,193 51,196" />
<polygon fill="#0000ff" fill-opacity="0.501961" points="170,82 176,117 125,174" />
<polygon fill="#00ff00" fill-opacity="0.501961" points="7,84 13,136 54,180" />
<polygon fill="#00ff00" fill-opacity="0.501961" points="182,127 162,170 117,194" />
<polygon fill="#ffffff" fill-opacity="0.501961" points="215,-7 80,-10 173,25" />
<polygon fill="#ff0000" fill-opacity="0.501961" points="62,58 153,83 117,153" />
<polygon fill="#ffffff" fill-opacity="0.501961" points="110,-4 -16,38 -16,-1" />
<polygon fill="#00ff00" fill-opacity="0.501961" points="23,130 34,168 77,190" />
<polygon fill="#ffffff" fill-opacity="0.501961" points="-6,211 96,215 -8,137" />
<polygon fill="#0000ff" fill-opacity="0.501961" points="152,43 99,22 58,46" />
<polygon fill="#ff0000" fill-opacity="0.501961" points="46,107 60,64 59,137" />
<polygon fill="#00ff00" fill-opacity="0.501961" points="14,61 6,101 57,24" />
<polygon fill="#0000ff" fill-opacity="0.501961" points="25,114 43,152 46,72" />
<polygon fill="#ffffff" fill-opacity="0.501961" points="194,14 215,86 196,147" />
<polygon fill="#0000ff" fill-opacity="0.501961" points="84,43 43,47 24,85" />
<polygon fill="#ffffff" fill-opacity="0.501961" points="191,155 215,174 112,203" />
<polygon fill="#00ff00" fill-opacity="0.501961" points="106,5 54,18 153,25" />
<polygon fill="#0000ff" fill-opacity="0.501961" points="153,158 172,120 98,166" />
<polygon fill="#ff0000" fill-opacity="0.501961" points="62,60 75,148 89,45" />
<polygon fill="#ff0000" fill-opacity="0.501961" points="94,154 126,148 61,138" />
<polygon fill="#0000ff" fill-opacity="0.501961" points="38,145 26,81 80,174" />
<polygon fill="#00ff00" fill-opacity="0.501961" points="192,74 195,111 155,34" />
</g>
</svg>