<svg xmlns="http://www.w3.org/2000/svg" version="1.1" width="1024" height="1024">
<rect x="0" y="0" width="1024" height="1024" fill="#868686" />
<g transform="scale(5.120000) translate(0.5 0.5)">
<polygon fill="#ff0000" fill-opacity="0.501961" points="13,85 158,34 127,180" />
<polygon fill="#0000ff" fill-opacity="0.501961" points="29,142 21,71 83,14" />
<polygon fill="#0000ff" fill-opacity="0.501961" points="120,182 175,133 48,163" />
<polygon fill="#0000ff" fill-opacity="0.501961" points="148,29 70,21 186,100" />
<polygon fill="#ffffff" fill-opacity="0.501961" points="-7,76 -16,-16 88,-16" />
<polygon fill="#ffffff" fill-opacity="0.501961" points="-11,116 75,205 -16,199" />
<polygon fill="#ffffff" fill-opacity="0.501961" points="215,-2 215,86 122,-11" />
<polygon fill="#ffffff" fill-opacity="0.501961" points="118,210 199,132 215,215" />
<polygon fill="#ff0000" fill-opacity="0.501961" points="171,109 60,155 72,40" />
<polygon fill="#00ff00" fill-opacity="0.501961" points="46,14 1,82 16,148" />
<polygon fill="#00ff00" fill-opacity="0.501961" points="195,134 144,190 189,52" />
<polygon fill="#0000ff" fill-opacity="0.501961" points="181,119 166,52 134,176" />
<polygon fill="#00ff00" fill-opacity="0.501961" points="177,33 101,-2 44,23" />
<polygon fill="#00ff00" fill-opacity="0.501961" points="81,198 17,155 152,183" />
<polygon fill="#0000ff" fill-opacity="0.501961" points="99,181 40,157 21,82" />
<polygon fill="#00ff00" fill-opacity="0.501961" points="122,5 197,100 179,41" />
<polygon fill="#0000ff" fill-opacity="0.501961" points="168,54 106,17 43,44" />
<polygon fill="#00ff00" fill-opacity="0.501961" points="7,89 63,189 21,156" />
<polygon fill="#ff0000" fill-opacity="0.501961" points="163,85 105,36 38,93" />
<polygon fill="#ffffff" fill-opacity="0.501961" points="-5,144 -16,-1 27,0" />
<polygon fill="#ffffff" fill-opacity="0.501961" points="131,-16 42,3 215,13" />
<polygon fill="#00ff00" fill-opacity="0.501961" points="114,3 50,16 12,61" />
<polygon fill="#00ff00" fill-opacity="0.501961" points="67,190 129,192 183,154" />
<polygon fill="#ffffff" fill-opacity="0.501961" points="215,73 160,199 198,215" />
<polygon fill="#ffffff" fill-opacity="0.501961" points="-16,145 120,215 4,215" />
<polygon fill="#ff0000" fill-opacity="0.501961" points="158,119 38,88 98,161" />
<polygon fill="#0000ff" fill-opacity="0.501961" points="149,162 96,180 36,143" />
<polygon fill="#0000ff" fill-opacity="0.501961" points="43,153 47,42 19,90" />
<polygon fill="#ffffff" fill-opacity="0.501961" points="209,-4 156,-16 205,105" />
<polygon fill="#0000ff" fill-opacity="0.501961" points="179,97 144,35 165,146" />
<polygon fill="#ffffff" fill-opacity="0.501961" points="-16,-5 -16,57 110,-16" />
<polygon fill="#ffffff" fill-opacity="0.501961" points="212,202 83,203 201,167" />
<polygon fill="#ffffff" fill-opacity="0.501961" points="-16,78 46,199 -8,205" />
<polygon fill="#00ff00" fill-opacity="0.501961" points="196,106 178,44 175,160" />
<polygon fill="#ff0000" fill-opacity="0.501961" points="56,61 159,91 53,138" />
<polygon fill="#0000ff" fill-opacity="0.501961" points="87,21 142,33 26,64" />
<polygon fill="#00ff00" fill-opacity="0.501961" points="37,25 11,138 6,81" />
<polygon fill="#00ff00" fill-opacity="0.501961" points="134,9 178,44 68,9" />
<polygon fill="#0000ff" fill-opacity="0.501961" points="153,159 175,121 78,175" />
<polygon fill="#00ff00" fill-opacity="0.501961" points="102,193 18,135 50,181" />
<polygon fill="#00ff00" fill-opacity="0.501961" points="187,121 114,196 169,167" />
<polygon fill="#0000ff" fill-opacity="0.501961" points="73,174 29,69 31,137" />
<polygon fill="#ffffff" fill-opacity="0.501961" points="199,53 106,-13 215,-12" />
<polygon fill="#ff0000" fill-opacity="0.501961" points="134,52 59,59 156,118" />
<polygon fill="#0000ff" fill-opacity="0.501961" points="109,21 178,108 160,46" />
<polygon fill="#ff0000" fill-opacity="0.501961" points="84,155 139,144 45,118" />
<polygon fill="#ffffff" fill-opacity="0.501961" points="1,184 131,198 22,215" />
<polygon fill="#ffffff" fill-opacity="0.501961" points="215,136 188,215 197,64" />
<polygon fill="#00ff00" fill-opacity="0.501961" points="80,6 5,91 28,37" />
<polygon fill="#00ff00" fill-opacity="0.501961" points="195,90 130,14 176,41" />
</g>
</svg>