<svg xmlns="http://www.w3.org/2000/svg" version="1.1" width="1024" height="1024">
<rect x="0" y="0" width="1024" height="1024" fill="#868686" />
<g transform="scale(5.120000) translate(0.5 0.5)">
<ellipse fill="#ff0000" fill-opacity="0.501961" cx="100" cy="100" rx="55" ry="55" />
<ellipse fill="#ffffff" fill-opacity="0.501961" cx="0" cy="0" rx="54" ry="54" />
<ellipse fill="#ffffff" fill-opacity="0.501961" cx="199" cy="0" rx="54" ry="52" />
<ellipse fill="#ffffff" fill-opacity="0.501961" cx="0" cy="199" rx="53" ry="53" />
<ellipse fill="#ffffff" fill-opacity="0.501961" cx="199" cy="199" rx="52" ry="54" />
<ellipse fill="#0000ff" fill-opacity="0.501961" cx="99" cy="162" rx="48" ry="14" />
<ellipse fill="#ff0000" fill-opacity="0.501961" cx="101" cy="105" rx="53" ry="50" />
<ellipse fill="#0000ff" fill-opacity="0.501961" cx="38" cy="100" rx="14" ry="49" />
<ellipse fill="#0000ff" fill-opacity="0.501961" cx="162" cy="100" rx="14" ry="49" />
<ellipse fill="#0000ff" fill-opacity="0.501961" cx="99" cy="38" rx="49" ry="14" />
<ellipse fill="#00ff00" fill-opacity="0.501961" cx="101" cy="17" rx="47" ry="11" />
<ellipse fill="#00ff00" fill-opacity="0.501961" cx="183" cy="101" rx="11" ry="48" />
<ellipse fill="#00ff00" fill-opacity="0.501961" cx="17" cy="98" rx="11" ry="48" />
<ellipse fill="#00ff00" fill-opacity="0.501961" cx="98" cy="183" rx="47" ry="11" />
<ellipse fill="#0000ff" fill-opacity="0.501961" cx="146" cy="147" rx="14" ry="14" />
<ellipse fill="#ffffff" fill-opacity="0.501961" cx="0" cy="98" rx="10" ry="199" />
<ellipse fill="#007876" fill-opacity="0.501961" cx="47" cy="46" rx="23" ry="21" />
<ellipse fill="#00677e" fill-opacity="0.501961" cx="47" cy="152" rx="23" ry="21" />
<ellipse fill="#ffffff" fill-opacity="0.501961" cx="109" cy="3" rx="199" ry="8" />
<ellipse fill="#ffffff" fill-opacity="0.501961" cx="29" cy="199" rx="56" ry="17" />
<ellipse fill="#ffffff" fill-opacity="0.501961" cx="199" cy="18" rx="20" ry="61" />
<ellipse fill="#007678" fill-opacity="0.501961" cx="153" cy="46" rx="20" ry="23" />
<ellipse fill="#ffffff" fill-opacity="0.501961" cx="173" cy="199" rx="54" ry="17" />
<ellipse fill="#ff0000" fill-opacity="0.501961" cx="99" cy="76" rx="45" ry="30" />
<ellipse fill="#0000ff" fill-opacity="0.501961" cx="99" cy="35" rx="38" ry="12" />
<ellipse fill="#00ff00" fill-opacity="0.501961" cx="165" cy="156" rx="13" ry="15" />
<ellipse fill="#ffffff" fill-opacity="0.501961" cx="199" cy="99" rx="7" ry="195" />
<ellipse fill="#0000ff" fill-opacity="0.501961" cx="99" cy="165" rx="38" ry="12" />
<ellipse fill="#0000ff" fill-opacity="0.501961" cx="166" cy="104" rx="12" ry="36" />
<ellipse fill="#0000ff" fill-opacity="0.501961" cx="34" cy="100" rx="12" ry="34" />
<ellipse fill="#00ff00" fill-opacity="0.501961" cx="100" cy="14" rx="33" ry="9" />
<ellipse fill="#0000ff" fill-opacity="0.501961" cx="53" cy="55" rx="14" ry="13" />
<ellipse fill="#00ff00" fill-opacity="0.501961" cx="148" cy="172" rx="13" ry="9" />
<ellipse fill="#ff0000" fill-opacity="0.501961" cx="122" cy="99" rx="33" ry="45" />
<ellipse fill="#0000ff" fill-opacity="0.501961" cx="148" cy="55" rx="13" ry="15" />
<ellipse fill="#ff0000" fill-opacity="0.501961" cx="74" cy="102" rx="29" ry="42" />
<ellipse fill="#00ff00" fill-opacity="0.501961" cx="49" cy="169" rx="14" ry="11" />
<ellipse fill="#00ff00" fill-opacity="0.501961" cx="14" cy="98" rx="9" ry="34" />
<ellipse fill="#0000ff" fill-opacity="0.501961" cx="52" cy="144" rx="12" ry="16" />
<ellipse fill="#00ff00" fill-opacity="0.501961" cx="172" cy="55" rx="8" ry="16" />
<ellipse fill="#00ff00" fill-opacity="0.501961" cx="29" cy="147" rx="9" ry="15" />
<ellipse fill="#00ff00" fill-opacity="0.501961" cx="186" cy="98" rx="9" ry="34" />
<ellipse fill="#00ff00" fill-opacity="0.501961" cx="52" cy="29" rx="15" ry="9" />
<ellipse fill="#00ff00" fill-opacity="0.501961" cx="148" cy="29" rx="14" ry="9" />
<ellipse fill="#ffffff" fill-opacity="0.501961" cx="0" cy="26" rx="24" ry="44" />
<ellipse fill="#00ff00" fill-opacity="0.501961" cx="29" cy="53" rx="9" ry="15" />
<ellipse fill="#ffffff" fill-opacity="0.501961" cx="199" cy="174" rx="26" ry="39" />
<ellipse fill="#ffffff" fill-opacity="0.501961" cx="0" cy="180" rx="27" ry="46" />
<ellipse fill="#ffffff" fill-opacity="0.501961" cx="105" cy="197" rx="158" ry="3" />
<ellipse fill="#00ff00" fill-opacity="0.501961" cx="176" cy="140" rx="8" ry="16" />
<ellipse fill="#00ff00" fill-opacity="0.501961" cx="101" cy="183" rx="46" ry="7" />
<ellipse fill="#ffffff" fill-opacity="0.501961" cx="170" cy="1" rx="41" ry="21" />
<ellipse fill="#ffffff" fill-opacity="0.501961" cx="18" cy="0" rx="44" ry="31" />
<ellipse fill="#0000ff" fill-opacity="0.501961" cx="153" cy="140" rx="11" ry="15" />
<ellipse fill="#00ff00" fill-opacity="0.501961" cx="160" cy="41" rx="11" ry="11" />
<ellipse fill="#0000ff" fill-opacity="0.501961" cx="140" cy="47" rx="15" ry="11" />
<ellipse fill="#00ff00" fill-opacity="0.501961" cx="41" cy="38" rx="10" ry="10" />
<ellipse fill="#0000ff" fill-opacity="0.501961" cx="45" cy="63" rx="12" ry="12" />
<ellipse fill="#0000ff" fill-opacity="0.501961" cx="63" cy="155" rx="13" ry="11" />
<ellipse fill="#0000ff" fill-opacity="0.501961" cx="66" cy="43" rx="13" ry="12" />
<ellipse fill="#00ff00" fill-opacity="0.501961" cx="38" cy="160" rx="10" ry="9" />
<ellipse fill="#0000ff" fill-opacity="0.501961" cx="159" cy="70" rx="11" ry="16" />
<ellipse fill="#ffffff" fill-opacity="0.501961" cx="187" cy="187" rx="28" ry="30" />
<ellipse fill="#00ff00" fill-opacity="0.501961" cx="63" cy="23" rx="17" ry="7" />
<ellipse fill="#00ff00" fill-opacity="0.501961" cx="59" cy="175" rx="16" ry="6" />
<ellipse fill="#0000ff" fill-opacity="0.501961" cx="135" cy="156" rx="14" ry="11" />
<ellipse fill="#0000ff" fill-opacity="0.501961" cx="43" cy="132" rx="10" ry="17" />
<ellipse fill="#ffffff" fill-opacity="0.501961" cx="25" cy="199" rx="34" ry="28" />
<ellipse fill="#ff0000" fill-opacity="0.501961" cx="102" cy="128" rx="38" ry="27" />
<ellipse fill="#ff0000" fill-opacity="0.501961" cx="101" cy="68" rx="36" ry="23" />
<ellipse fill="#ffffff" fill-opacity="0.501961" cx="187" cy="11" rx="32" ry="29" />
<ellipse fill="#00ff00" fill-opacity="0.501961" cx="21" cy="134" rx="7" ry="17" />
<ellipse fill="#0000ff" fill-opacity="0.501961" cx="102" cy="166" rx="27" ry="12" />
<ellipse fill="#00ff00" fill-opacity="0.501961" cx="142" cy="175" rx="16" ry="6" />
<ellipse fill="#00ff00" fill-opacity="0.501961" cx="136" cy="23" rx="17" ry="7" />
<ellipse fill="#0000ff" fill-opacity="0.501961" cx="101" cy="33" rx="31" ry="11" />
<ellipse fill="#00ff00" fill-opacity="0.501961" cx="99" cy="186" rx="32" ry="9" />
<ellipse fill="#00ff00" fill-opacity="0.501961" cx="157" cy="164" rx="12" ry="8" />
<ellipse fill="#ffffff" fill-opacity="0.501961" cx="199" cy="148" rx="13" ry="28" />
<ellipse fill="#0000ff" fill-opacity="0.501961" cx="35" cy="96" rx="11" ry="34" />
<ellipse fill="#00ff00" fill-opacity="0.501961" cx="22" cy="65" rx="7" ry="17" />
<ellipse fill="#ffffff" fill-opacity="0.501961" cx="99" cy="2" rx="152" ry="4" />
<ellipse fill="#ffffff" fill-opacity="0.501961" cx="1" cy="114" rx="5" ry="193" />
<ellipse fill="#ff0000" fill-opacity="0.501961" cx="72" cy="100" rx="26" ry="41" />
<ellipse fill="#00ff00" fill-opacity="0.501961" cx="100" cy="15" rx="38" ry="8" />
<ellipse fill="#0000ff" fill-opacity="0.501961" cx="165" cy="103" rx="11" ry="35" />
<ellipse fill="#ffffff" fill-opacity="0.501961" cx="3" cy="23" rx="32" ry="26" />
<ellipse fill="#00ff00" fill-opacity="0.501961" cx="176" cy="62" rx="7" ry="15" />
<ellipse fill="#ffffff" fill-opacity="0.501961" cx="172" cy="197" rx="31" ry="24" />
<ellipse fill="#00ff00" fill-opacity="0.501961" cx="168" cy="153" rx="10" ry="8" />
<ellipse fill="#ff0000" fill-opacity="0.501961" cx="128" cy="94" rx="25" ry="35" />
<ellipse fill="#00ff00" fill-opacity="0.501961" cx="186" cy="99" rx="8" ry="36" />
<ellipse fill="#00ff00" fill-opacity="0.501961" cx="14" cy="98" rx="9" ry="30" />
<ellipse fill="#ffffff" fill-opacity="0.501961" cx="199" cy="55" rx="11" ry="29" />
<ellipse fill="#00ff00" fill-opacity="0.501961" cx="34" cy="45" rx="7" ry="12" />
<ellipse fill="#ffffff" fill-opacity="0.501961" cx="0" cy="154" rx="15" ry="33" />
<ellipse fill="#0000ff" fill-opacity="0.501961" cx="151" cy="58" rx="10" ry="15" />
<ellipse fill="#0000ff" fill-opacity="0.501961" cx="57" cy="50" rx="13" ry="11" />
<ellipse fill="#ffffff" fill-opacity="0.501961" cx="41" cy="3" rx="32" ry="14" />
<ellipse fill="#0000ff" fill-opacity="0.501961" cx="125" cy="40" rx="21" ry="9" />
<ellipse fill="#00ff00" fill-opacity="0.501961" cx="162" cy="40" rx="7" ry="11" />
<ellipse fill="#ffffff" fill-opacity="0.501961" cx="103" cy="197" rx="138" ry="3" />
<ellipse fill="#00ff00" fill-opacity="0.501961" cx="178" cy="134" rx="7" ry="15" />
<ellipse fill="#ffffff" fill-opacity="0.501961" cx="197" cy="87" rx="3" ry="152" />
<ellipse fill="#ffffff" fill-opacity="0.501961" cx="9" cy="179" rx="27" ry="25" />
<ellipse fill="#ffffff" fill-opacity="0.501961" cx="0" cy="58" rx="12" ry="25" />
<ellipse fill="#00ff00" fill-opacity="0.501961" cx="27" cy="146" rx="8" ry="11" />
<ellipse fill="#0000ff" fill-opacity="0.501961" cx="140" cy="153" rx="15" ry="10" />
<ellipse fill="#ffffff" fill-opacity="0.501961" cx="199" cy="27" rx="25" ry="36" />
<ellipse fill="#0000ff" fill-opacity="0.501961" cx="58" cy="151" rx="12" ry="12" />
<ellipse fill="#0000ff" fill-opacity="0.501961" cx="152" cy="141" rx="11" ry="13" />
<ellipse fill="#00ff00" fill-opacity="0.501961" cx="156" cy="35" rx="10" ry="8" />
<ellipse fill="#00ff00" fill-opacity="0.501961" cx="42" cy="164" rx="12" ry="7" />
<ellipse fill="#00ff00" fill-opacity="0.501961" cx="173" cy="53" rx="9" ry="11" />
<ellipse fill="#00ff00" fill-opacity="0.501961" cx="25" cy="59" rx="6" ry="14" />
<ellipse fill="#00ff00" fill-opacity="0.501961" cx="53" cy="28" rx="12" ry="7" />
<ellipse fill="#ffffff" fill-opacity="0.501961" cx="47" cy="199" rx="30" ry="14" />
<ellipse fill="#ffffff" fill-opacity="0.501961" cx="154" cy="3" rx="35" ry="10" />
<ellipse fill="#00ff00" fill-opacity="0.501961" cx="172" cy="147" rx="7" ry="12" />
<ellipse fill="#0000ff" fill-opacity="0.501961" cx="34" cy="99" rx="11" ry="32" />
<ellipse fill="#ffffff" fill-opacity="0.501961" cx="150" cy="198" rx="27" ry="12" />
<ellipse fill="#00ff00" fill-opacity="0.501961" cx="63" cy="177" rx="17" ry="6" />
<ellipse fill="#ffffff" fill-opacity="0.501961" cx="24" cy="7" rx="22" ry="28" />
<ellipse fill="#00ff00" fill-opacity="0.501961" cx="99" cy="14" rx="29" ry="9" />
<ellipse fill="#0000ff" fill-opacity="0.501961" cx="162" cy="77" rx="10" ry="18" />
<ellipse fill="#00ff00" fill-opacity="0.501961" cx="182" cy="79" rx="6" ry="25" />
<ellipse fill="#0000ff" fill-opacity="0.501961" cx="74" cy="160" rx="20" ry="9" />
<ellipse fill="#0000ff" fill-opacity="0.501961" cx="39" cy="123" rx="9" ry="21" />
<ellipse fill="#ff0000" fill-opacity="0.501961" cx="124" cy="101" rx="31" ry="41" />
<ellipse fill="#ff0000" fill-opacity="0.501961" cx="100" cy="73" rx="40" ry="28" />
<ellipse fill="#00ff00" fill-opacity="0.501961" cx="152" cy="168" rx="10" ry="9" />
<ellipse fill="#0000ff" fill-opacity="0.501961" cx="166" cy="101" rx="11" ry="33" />
<ellipse fill="#00ff00" fill-opacity="0.501961" cx="121" cy="183" rx="18" ry="8" />
<ellipse fill="#0000ff" fill-opacity="0.501961" cx="41" cy="71" rx="11" ry="14" />
<ellipse fill="#00ff00" fill-opacity="0.501961" cx="44" cy="35" rx="10" ry="8" />
<ellipse fill="#00ff00" fill-opacity="0.501961" cx="33" cy="154" rx="8" ry="10" />
<ellipse fill="#00ff00" fill-opacity="0.501961" cx="137" cy="23" rx="17" ry="6" />
<ellipse fill="#ffffff" fill-opacity="0.501961" cx="173" cy="3" rx="32" ry="24" />
<ellipse fill="#ffffff" fill-opacity="0.501961" cx="197" cy="168" rx="21" ry="30" />
<ellipse fill="#0000ff" fill-opacity="0.501961" cx="69" cy="42" rx="16" ry="10" />
<ellipse fill="#ff0000" fill-opacity="0.501961" cx="87" cy="123" rx="32" ry="27" />
<ellipse fill="#00ff00" fill-opacity="0.501961" cx="17" cy="119" rx="7" ry="23" />
<ellipse fill="#00ff00" fill-opacity="0.501961" cx="181" cy="125" rx="6" ry="23" />
<ellipse fill="#00ff00" fill-opacity="0.501961" cx="161" cy="161" rx="9" ry="9" />
<ellipse fill="#0000ff" fill-opacity="0.501961" cx="127" cy="159" rx="21" ry="8" />
<ellipse fill="#00ff00" fill-opacity="0.501961" cx="18" cy="75" rx="7" ry="20" />
<ellipse fill="#0000ff" fill-opacity="0.501961" cx="132" cy="42" rx="11" ry="12" />
<ellipse fill="#0000ff" fill-opacity="0.501961" cx="102" cy="166" rx="22" ry="12" />
<ellipse fill="#ffffff" fill-opacity="0.501961" cx="14" cy="188" rx="32" ry="25" />
<ellipse fill="#0000ff" fill-opacity="0.501961" cx="159" cy="129" rx="10" ry="16" />
</g>
</svg>