<svg xmlns="http://www.w3.org/2000/svg" version="1.1" width="1024" height="1024">
<rect x="0" y="0" width="1024" height="1024" fill="#868686" />
<g transform="scale(5.120000) translate(0.5 0.5)">
<polygon fill="#ff0000" fill-opacity="0.501961" points="57,27 188,99 61,173" />
<polygon fill="#0000ff" fill-opacity="0.501961" points="146,174 188,100 148,32" />
<polygon fill="#0000ff" fill-opacity="0.501961" points="131,177 55,172 15,100" />
<polygon fill="#0000ff" fill-opacity="0.501961" points="73,19 152,32 14,77" />
<polygon fill="#ffffff" fill-opacity="0.501961" points="-4,-10 -16,82 90,-16" />
<polygon fill="#ffffff" fill-opacity="0.501961" points="-4,123 -16,214 84,215" />
<polygon fill="#ffffff" fill-opacity="0.501961" points="210,-16 112,-16 200,69" />
<polygon fill="#ffffff" fill-opacity="0.501961" points="112,215 208,123 215,214" />
<polygon fill="#00ff00" fill-opacity="0.501961" points="4,94 112,-13 25,36" />
<polygon fill="#00ff00" fill-opacity="0.501961" points="195,65 146,11 190,140" />
<polygon fill="#ff0000" fill-opacity="0.501961" points="27,99 142,35 138,166" />
<polygon fill="#00ff00" fill-opacity="0.501961" points="191,144 133,195 63,190" />
<polygon fill="#0000ff" fill-opacity="0.501961" points="63,30 22,74 34,149" />
<polygon fill="#00ff00" fill-opacity="0.501961" points="25,162 106,215 -5,90" />
<polygon fill="#0000ff" fill-opacity="0.501961" points="138,171 181,115 71,179" />
<polygon fill="#00ff00" fill-opacity="0.501961" points="184,47 130,4 66,9" />
<polygon fill="#0000ff" fill-opacity="0.501961" points="92,18 181,99 163,46" />
<polygon fill="#00ff00" fill-opacity="0.501961" points="195,127 190,68 155,179" />
<polygon fill="#00ff00" fill-opacity="0.501961" points="3,90 21,154 28,36" />
<polygon fill="#ffffff" fill-opacity="0.501961" points="-6,-16 -1,126 28,2" />
<polygon fill="#ffffff" fill-opacity="0.501961" points="196,-16 215,22 63,0" />
<polygon fill="#ffffff" fill-opacity="0.501961" points="-16,146 -16,211 102,206" />
<polygon fill="#ff0000" fill-opacity="0.501961" points="102,160 110,36 46,127" />
<polygon fill="#ffffff" fill-opacity="0.501961" points="210,204 213,70 155,215" />
<polygon fill="#0000ff" fill-opacity="0.501961" points="36,148 24,87 90,178" />
<polygon fill="#ffffff" fill-opacity="0.501961" points="200,-6 155,-16 215,128" />
<polygon fill="#ff0000" fill-opacity="0.501961" points="41,87 91,40 166,114" />
<polygon fill="#00ff00" fill-opacity="0.501961" points="83,195 137,187 23,160" />
<polygon fill="#0000ff" fill-opacity="0.501961" points="82,22 35,51 145,40" />
<polygon fill="#00ff00" fill-opacity="0.501961" points="55,13 23,46 126,8" />
<polygon fill="#ffffff" fill-opacity="0.501961" points="212,174 86,197 191,215" />
<polygon fill="#0000ff" fill-opacity="0.501961" points="163,54 180,100 145,163" />
<polygon fill="#0000ff" fill-opacity="0.501961" points="60,163 130,172 166,140" />
<polygon fill="#ffffff" fill-opacity="0.501961" points="-16,-3 118,-9 5,36" />
<polygon fill="#ff0000" fill-opacity="0.501961" points="151,127 153,66 100,158" />
<polygon fill="#ffffff" fill-opacity="0.501961" points="34,215 -4,74 -16,200" />
<polygon fill="#00ff00" fill-opacity="0.501961" points="170,32 107,3 195,80" />
<polygon fill="#0000ff" fill-opacity="0.501961" points="55,161 21,101 40,49" />
<polygon fill="#00ff00" fill-opacity="0.501961" points="166,172 194,120 107,195" />
<polygon fill="#0000ff" fill-opacity="0.501961" points="149,38 174,108 111,21" />
<polygon fill="#00ff00" fill-opacity="0.501961" points="41,25 10,134 7,73" />
<polygon fill="#ff0000" fill-opacity="0.501961" points="150,69 107,159 108,43" />
<polygon fill="#00ff00" fill-opacity="0.501961" points="64,189 20,151 5,88" />
<polygon fill="#ffffff" fill-opacity="0.501961" points="118,-6 215,-16 215,66" />
<polygon fill="#ff0000" fill-opacity="0.501961" points="45,113 72,50 79,154" />
<polygon fill="#ffffff" fill-opacity="0.501961" points="66,-16 -12,-6 -16,99" />
<polygon fill="#0000ff" fill-opacity="0.501961" points="45,153 103,179 154,156" />
<polygon fill="#ffffff" fill-opacity="0.501961" points="3,215 -16,166 129,206" />
<polygon fill="#00ff00" fill-opacity="0.501961" points="173,47 184,148 197,96" />
<polygon fill="#00ff00" fill-opacity="0.501961" points="111,4 164,25 48,21" />
<polygon fill="#0000ff" fill-opacity="0.501961" points="24,84 117,22 70,26" />
<polygon fill="#ffffff" fill-opacity="0.501961" points="196,44 192,185 215,112" />
<polygon fill="#0000ff" fill-opacity="0.501961" points="177,86 175,123 122,163" />
<polygon fill="#ffffff" fill-opacity="0.501961" points="211,154 84,211 210,208" />
<polygon fill="#0000ff" fill-opacity="0.501961" points="69,33 134,29 167,62" />
<polygon fill="#ffffff" fill-opacity="0.501961" points="-6,108 -1,215 49,195" />
<polygon fill="#0000ff" fill-opacity="0.501961" points="76,28 31,64 26,124" />
<polygon fill="#ff0000" fill-opacity="0.501961" points="105,44 45,99 58,61" />
<polygon fill="#00ff00" fill-opacity="0.501961" points="63,187 126,192 22,152" />
<polygon fill="#0000ff" fill-opacity="0.501961" points="29,133 59,167 117,163" />
<polygon fill="#00ff00" fill-opacity="0.501961" points="64,180 121,193 165,173" />
<polygon fill="#ffffff" fill-opacity="0.501961" points="138,3 15,8 62,-16" />
<polygon fill="#ffffff" fill-opacity="0.501961" points="215,129 193,198 128,200" />
<polygon fill="#00ff00" fill-opacity="0.501961" points="41,24 78,12 19,70" />
<polygon fill="#ffffff" fill-opacity="0.501961" points="13,13 1,149 -16,65" />
<polygon fill="#ff0000" fill-opacity="0.501961" points="156,93 133,53 141,138" />
<polygon fill="#ff0000" fill-opacity="0.501961" points="77,152 123,152 94,44" />
<polygon fill="#00ff00" fill-opacity="0.501961" points="189,130 186,97 153,170" />
<polygon fill="#00ff00" fill-opacity="0.501961" points="27,153 6,93 20,58" />
<polygon fill="#0000ff" fill-opacity="0.501961" points="178,92 151,41 161,144" />
<polygon fill="#ffffff" fill-opacity="0.501961" points="134,-16 215,-9 215,95" />
<polygon fill="#0000ff" fill-opacity="0.501961" points="34,75 29,131 67,169" />
<polygon fill="#00ff00" fill-opacity="0.501961" points="10,129 43,176 95,192" />
<polygon fill="#00ff00" fill-opacity="0.501961" points="159,24 134,26 187,70" />
<polygon fill="#00ff00" fill-opacity="0.501961" points="136,187 167,156 94,187" />
<polygon fill="#0000ff" fill-opacity="0.501961" points="26,75 23,108 81,37" />
<polygon fill="#00ff00" fill-opacity="0.501961" points="121,7 90,5 56,33" />
<polygon fill="#ff0000" fill-opacity="0.501961" points="117,46 71,146 73,51" />
<polygon fill="#ffffff" fill-opacity="0.501961" points="212,57 187,14 200,127" />
<polygon fill="#ffffff" fill-opacity="0.501961" points="134,196 68,215 40,192" />
<polygon fill="#0000ff" fill-opacity="0.501961" points="132,44 175,78 176,119" />
<polygon fill="#ff0000" fill-opacity="0.501961" points="45,108 67,144 54,69" />
<polygon fill="#00ff00" fill-opacity="0.501961" points="193,109 147,17 185,56" />
<polygon fill="#ffffff" fill-opacity="0.501961" points="157,17 165,-2 86,-4" />
<polygon fill="#ffffff" fill-opacity="0.501961" points="4,55 -16,-16 92,-16" />
<polygon fill="#ff0000" fill-opacity="0.501961" points="154,113 45,93 128,147" />
<polygon fill="#0000ff" fill-opacity="0.501961" points="168,137 113,153 141,166" />
<polygon fill="#ffffff" fill-opacity="0.501961" points="159,188 215,139 200,115" />
<polygon fill="#0000ff" fill-opacity="0.501961" points="95,177 68,171 41,116" />
<polygon fill="#00ff00" fill-opacity="0.501961" points="14,59 42,34 17,99" />
<polygon fill="#00ff00" fill-opacity="0.501961" points="171,163 189,114 125,191" />
<polygon fill="#00ff00" fill-opacity="0.501961" points="123,7 77,22 151,20" />
<polygon fill="#0000ff" fill-opacity="0.501961" points="174,73 130,27 74,27" />
<polygon fill="#ffffff" fill-opacity="0.501961" points="-16,155 75,215 3,131" />
<polygon fill="#0000ff" fill-opacity="0.501961" points="103,21 115,44 40,47" />
<polygon fill="#ff0000" fill-opacity="0.501961" points="52,128 143,133 77,150" />
<polygon fill="#00ff00" fill-opacity="0.501961" points="10,72 6,110 35,146" />
<polygon fill="#0000ff" fill-opacity="0.501961" points="102,177 128,172 73,148" />
<polygon fill="#00ff00" fill-opacity="0.501961" points="83,192 116,194 54,164" />
<polygon fill="#ff0000" fill-opacity="0.501961" points="95,46 129,51 151,80" />
</g>
</svg>