<svg xmlns="http://www.w3.org/2000/svg" version="1.1" width="1024" height="1024">
<rect x="0" y="0" width="1024" height="1024" fill="#ccccda" />
<g transform="scale(3.413333) translate(0.5 0.5)">
<polygon fill="#87703d" fill-opacity="0.501961" points="84,50 98,259 269,139" />
<polygon fill="#133efd" fill-opacity="0.501961" points="209,241 260,149 104,250" />
<polygon fill="#1031ff" fill-opacity="0.501961" points="198,52 259,135 101,55" />
<polygon fill="#1135ff" fill-opacity="0.501961" points="44,160 84,59 96,242" />
<polygon fill="#ff5f3a" fill-opacity="0.501961" points="73,154 189,84 186,212" />
<polygon fill="#ffffff" fill-opacity="0.501961" points="315,-16 296,315 200,-16" />
<polygon fill="#ffffff" fill-opacity="0.501961" points="-16,300 -5,201 315,298" />
<polygon fill="#39ff43" fill-opacity="0.501961" points="223,175 178,219 104,214" />
<polygon fill="#ffffff" fill-opacity="0.501961" points="-16,143 -16,0 217,-9" />
<polygon fill="#2dff4a" fill-opacity="0.501961" points="223,142 128,75 197,89" />
<polygon fill="#31ff46" fill-opacity="0.501961" points="87,105 78,173 122,215" />
<polygon fill="#413eff" fill-opacity="0.501961" points="215,69 227,222 254,127" />
<polygon fill="#3d43ff" fill-opacity="0.501961" points="177,54 97,61 47,132" />
<polygon fill="#4943ff" fill-opacity="0.501961" points="49,179 114,250 190,246" />
<polygon fill="#fffffb" fill-opacity="0.501961" points="315,167 315,296 92,299" />
<polygon fill="#fffffa" fill-opacity="0.501961" points="-16,290 80,315 20,-16" />
<polygon fill="#3fff47" fill-opacity="0.501961" points="76,139 173,80 112,85" />
<polygon fill="#38ff4d" fill-opacity="0.501961" points="222,166 213,109 182,213" />
<polygon fill="#fffff7" fill-opacity="0.501961" points="315,114 56,-2 302,-16" />
<polygon fill="#ff4f60" fill-opacity="0.501961" points="117,97 122,199 208,158" />
<polygon fill="#4eff5b" fill-opacity="0.501961" points="80,160 101,204 166,222" />
<polygon fill="#5c53ff" fill-opacity="0.501961" points="198,237 240,99 245,191" />
<polygon fill="#5f58ff" fill-opacity="0.501961" points="171,50 51,131 118,53" />
<polygon fill="#5d58ff" fill-opacity="0.501961" points="50,153 73,218 159,253" />
<polygon fill="#55ff60" fill-opacity="0.501961" points="80,165 92,107 142,76" />
<polygon fill="#ff4c5f" fill-opacity="0.501961" points="126,100 183,106 200,152" />
<polygon fill="#5dff62" fill-opacity="0.501961" points="177,81 221,124 122,84" />
<polygon fill="#f9f9f4" fill-opacity="0.501961" points="315,127 245,53 256,315" />
<polygon fill="#5f57ff" fill-opacity="0.501961" points="235,93 162,51 252,163" />
<polygon fill="#59ff5d" fill-opacity="0.501961" points="223,149 198,96 202,199" />
<polygon fill="#fefef5" fill-opacity="0.501961" points="54,221 158,259 83,303" />
<polygon fill="#ff5963" fill-opacity="0.501961" points="110,111 163,202 102,173" />
<polygon fill="#5e50ff" fill-opacity="0.501961" points="73,79 84,195 51,134" />
<polygon fill="#f9f9f3" fill-opacity="0.501961" points="-12,187 124,25 1,-16" />
<polygon fill="#61ff62" fill-opacity="0.501961" points="221,158 195,206 136,223" />
<polygon fill="#6158ff" fill-opacity="0.501961" points="84,227 235,211 162,249" />
<polygon fill="#ff4961" fill-opacity="0.501961" points="174,196 201,162 130,197" />
<polygon fill="#5fff63" fill-opacity="0.501961" points="98,197 78,141 102,99" />
<polygon fill="#615fff" fill-opacity="0.501961" points="51,159 139,49 81,75" />
<polygon fill="#f8f8f4" fill-opacity="0.501961" points="296,297 253,177 196,259" />
<polygon fill="#f9f9f5" fill-opacity="0.501961" points="57,47 -6,197 46,223" />
<polygon fill="#60ff5d" fill-opacity="0.501961" points="89,186 185,209 152,221" />
<polygon fill="#ff6164" fill-opacity="0.501961" points="194,178 100,131 151,99" />
<polygon fill="#61ff5f" fill-opacity="0.501961" points="97,103 155,78 195,97" />
<polygon fill="#6065ff" fill-opacity="0.501961" points="252,141 211,104 237,199" />
<polygon fill="#645fff" fill-opacity="0.501961" points="140,49 202,64 63,98" />
<polygon fill="#fcfbf7" fill-opacity="0.501961" points="138,42 204,2 232,68" />
<polygon fill="#f1f1ef" fill-opacity="0.501961" points="58,198 122,263 -16,315" />
<polygon fill="#625aff" fill-opacity="0.501961" points="189,56 240,118 153,70" />
<polygon fill="#ff6161" fill-opacity="0.501961" points="201,153 135,200 191,116" />
<polygon fill="#63ff63" fill-opacity="0.501961" points="166,80 209,107 221,168" />
<polygon fill="#6164ff" fill-opacity="0.501961" points="101,239 162,228 60,196" />
<polygon fill="#f0f0f0" fill-opacity="0.501961" points="35,113 179,-1 -16,0" />
<polygon fill="#60ff64" fill-opacity="0.501961" points="155,79 83,142 108,93" />
<polygon fill="#63ff65" fill-opacity="0.501961" points="83,128 90,188 127,215" />
<polygon fill="#61ff66" fill-opacity="0.501961" points="217,175 126,217 166,219" />
<polygon fill="#6157ff" fill-opacity="0.501961" points="242,180 195,240 155,228" />
<polygon fill="#ff5f61" fill-opacity="0.501961" points="112,183 115,113 147,99" />
<polygon fill="#efefef" fill-opacity="0.501961" points="196,-15 307,280 315,2" />
<polygon fill="#6461ff" fill-opacity="0.501961" points="66,188 59,107 98,71" />
<polygon fill="#efefee" fill-opacity="0.501961" points="294,173 315,304 90,311" />
<polygon fill="#ff565a" fill-opacity="0.501961" points="151,200 101,158 116,187" />
<polygon fill="#fbfbf3" fill-opacity="0.501961" points="211,50 172,37 240,93" />
<polygon fill="#645fff" fill-opacity="0.501961" points="57,114 53,179 105,219" />
<polygon fill="#fdfdf5" fill-opacity="0.501961" points="160,44 122,34 77,64" />
<polygon fill="#6664ff" fill-opacity="0.501961" points="204,235 222,149 247,157" />
<polygon fill="#66ff63" fill-opacity="0.501961" points="214,184 212,119 185,211" />
<polygon fill="#ff6364" fill-opacity="0.501961" points="192,179 200,136 102,157" />
<polygon fill="#fffff5" fill-opacity="0.501961" points="74,223 104,252 124,249" />
<polygon fill="#63ff62" fill-opacity="0.501961" points="81,140 116,90 87,183" />
<polygon fill="#f1f1f0" fill-opacity="0.501961" points="-16,178 14,74 84,254" />
<polygon fill="#60ff64" fill-opacity="0.501961" points="198,197 139,219 103,202" />
<polygon fill="#5d5fff" fill-opacity="0.501961" points="110,241 137,247 85,180" />
<polygon fill="#ff6466" fill-opacity="0.501961" points="181,189 150,200 131,104" />
<polygon fill="#ff6466" fill-opacity="0.501961" points="194,122 134,198 165,101" />
<polygon fill="#6362ff" fill-opacity="0.501961" points="185,224 249,131 234,204" />
<polygon fill="#f7f7f2" fill-opacity="0.501961" points="239,230 129,259 198,261" />
<polygon fill="#f8f8f3" fill-opacity="0.501961" points="250,107 251,191 270,130" />
<polygon fill="#6463ff" fill-opacity="0.501961" points="152,50 85,78 222,79" />
<polygon fill="#60ff66" fill-opacity="0.501961" points="220,149 173,101 216,122" />
<polygon fill="#6260ff" fill-opacity="0.501961" points="203,101 249,133 249,167" />
<polygon fill="#60ff63" fill-opacity="0.501961" points="219,170 199,110 203,196" />
<polygon fill="#63ff65" fill-opacity="0.501961" points="122,84 160,90 85,123" />
<polygon fill="#ff6465" fill-opacity="0.501961" points="144,201 117,112 101,156" />
<polygon fill="#6363ff" fill-opacity="0.501961" points="73,137 84,75 130,51" />
<polygon fill="#6363ff" fill-opacity="0.501961" points="79,151 84,225 61,196" />
<polygon fill="#6463ff" fill-opacity="0.501961" points="126,62 213,71 235,107" />
<polygon fill="#63ff63" fill-opacity="0.501961" points="116,98 172,83 204,102" />
<polygon fill="#fffff8" fill-opacity="0.501961" points="229,215 249,178 251,209" />
<polygon fill="#65ff62" fill-opacity="0.501961" points="80,156 96,195 150,214" />
<polygon fill="#f0f0f0" fill-opacity="0.501961" points="63,94 -16,48 45,149" />
<polygon fill="#ff6364" fill-opacity="0.501961" points="129,104 159,100 185,184" />
<polygon fill="#62ff64" fill-opacity="0.501961" points="171,200 100,199 121,214" />
<polygon fill="#6264ff" fill-opacity="0.501961" points="216,112 248,174 233,208" />
<polygon fill="#efefef" fill-opacity="0.501961" points="48,176 138,315 -16,287" />
<polygon fill="#61ff63" fill-opacity="0.501961" points="186,187 220,133 220,158" />
<polygon fill="#6464ff" fill-opacity="0.501961" points="50,143 59,108 123,80" />
<polygon fill="#f4f4f2" fill-opacity="0.501961" points="74,75 119,53 90,34" />
<polygon fill="#6666ff" fill-opacity="0.501961" points="88,217 157,250 177,222" />
<polygon fill="#6766ff" fill-opacity="0.501961" points="179,80 235,131 239,105" />
</g>
</svg>