<svg xmlns="http://www.w3.org/2000/svg" version="1.1" width="1024" height="1024">
<rect x="0" y="0" width="1024" height="1024" fill="#ccccda" />
<g transform="scale(3.413333) translate(0.5 0.5)">
<ellipse fill="#4b4b88" fill-opacity="0.501961" cx="150" cy="150" rx="99" ry="100" />
<ellipse fill="#ff3e17" fill-opacity="0.501961" cx="150" cy="150" rx="50" ry="50" />
<ellipse fill="#63ff2e" fill-opacity="0.501961" cx="205" cy="150" rx="14" ry="44" />
<ellipse fill="#ffffff" fill-opacity="0.501961" cx="285" cy="154" rx="40" ry="299" />
<ellipse fill="#5aff28" fill-opacity="0.501961" cx="150" cy="94" rx="42" ry="13" />
<ellipse fill="#5aff28" fill-opacity="0.501961" cx="150" cy="206" rx="42" ry="13" />
<ellipse fill="#ffffff" fill-opacity="0.501961" cx="10" cy="133" rx="46" ry="299" />
<ellipse fill="#63ff2e" fill-opacity="0.501961" cx="95" cy="150" rx="14" ry="44" />
<ellipse fill="#ffffff" fill-opacity="0.501961" cx="151" cy="25" rx="299" ry="28" />
<ellipse fill="#3b41ff" fill-opacity="0.501961" cx="66" cy="149" rx="16" ry="48" />
<ellipse fill="#ff5b67" fill-opacity="0.501961" cx="150" cy="150" rx="50" ry="50" />
<ellipse fill="#ffffff" fill-opacity="0.501961" cx="156" cy="274" rx="299" ry="27" />
<ellipse fill="#3e44ff" fill-opacity="0.501961" cx="234" cy="150" rx="16" ry="49" />
<ellipse fill="#3d40ff" fill-opacity="0.501961" cx="150" cy="66" rx="48" ry="15" />
<ellipse fill="#3d40ff" fill-opacity="0.501961" cx="150" cy="234" rx="48" ry="15" />
<ellipse fill="#4346ff" fill-opacity="0.501961" cx="84" cy="204" rx="14" ry="20" />
<ellipse fill="#424bff" fill-opacity="0.501961" cx="215" cy="96" rx="15" ry="20" />
<ellipse fill="#4447ff" fill-opacity="0.501961" cx="216" cy="204" rx="14" ry="20" />
<ellipse fill="#4350ff" fill-opacity="0.501961" cx="86" cy="95" rx="16" ry="20" />
<ellipse fill="#56ff2a" fill-opacity="0.501961" cx="108" cy="109" rx="13" ry="12" />
<ellipse fill="#55ff2c" fill-opacity="0.501961" cx="191" cy="108" rx="13" ry="12" />
<ellipse fill="#47ff2e" fill-opacity="0.501961" cx="109" cy="194" rx="12" ry="12" />
<ellipse fill="#4bff2a" fill-opacity="0.501961" cx="190" cy="194" rx="12" ry="12" />
<ellipse fill="#4c4bff" fill-opacity="0.501961" cx="104" cy="222" rx="19" ry="14" />
<ellipse fill="#4a4bff" fill-opacity="0.501961" cx="196" cy="221" rx="19" ry="14" />
<ellipse fill="#4b50ff" fill-opacity="0.501961" cx="195" cy="79" rx="20" ry="14" />
<ellipse fill="#ff6664" fill-opacity="0.501961" cx="133" cy="147" rx="31" ry="40" />
<ellipse fill="#4e4eff" fill-opacity="0.501961" cx="107" cy="77" rx="21" ry="13" />
<ellipse fill="#fffff9" fill-opacity="0.501961" cx="243" cy="59" rx="29" ry="33" />
<ellipse fill="#52ff57" fill-opacity="0.501961" cx="211" cy="149" rx="10" ry="29" />
<ellipse fill="#fffff8" fill-opacity="0.501961" cx="48" cy="239" rx="45" ry="27" />
<ellipse fill="#fffff7" fill-opacity="0.501961" cx="54" cy="57" rx="36" ry="33" />
<ellipse fill="#fdfdf5" fill-opacity="0.501961" cx="255" cy="243" rx="41" ry="41" />
<ellipse fill="#56ff5e" fill-opacity="0.501961" cx="150" cy="90" rx="33" ry="11" />
<ellipse fill="#52ff55" fill-opacity="0.501961" cx="89" cy="150" rx="10" ry="28" />
<ellipse fill="#ff6564" fill-opacity="0.501961" cx="167" cy="150" rx="31" ry="44" />
<ellipse fill="#55ff5d" fill-opacity="0.501961" cx="149" cy="210" rx="32" ry="11" />
<ellipse fill="#6463ff" fill-opacity="0.501961" cx="149" cy="65" rx="42" ry="15" />
<ellipse fill="#6362ff" fill-opacity="0.501961" cx="151" cy="236" rx="41" ry="14" />
<ellipse fill="#6461ff" fill-opacity="0.501961" cx="235" cy="152" rx="15" ry="44" />
<ellipse fill="#6461ff" fill-opacity="0.501961" cx="67" cy="158" rx="13" ry="45" />
<ellipse fill="#5e5aff" fill-opacity="0.501961" cx="75" cy="109" rx="13" ry="21" />
<ellipse fill="#5f5eff" fill-opacity="0.501961" cx="224" cy="108" rx="14" ry="21" />
<ellipse fill="#5e5cff" fill-opacity="0.501961" cx="224" cy="193" rx="13" ry="20" />
<ellipse fill="#5dff58" fill-opacity="0.501961" cx="199" cy="116" rx="11" ry="12" />
<ellipse fill="#5eff54" fill-opacity="0.501961" cx="102" cy="185" rx="11" ry="12" />
<ellipse fill="#5d5eff" fill-opacity="0.501961" cx="76" cy="189" rx="10" ry="26" />
<ellipse fill="#f8f8f4" fill-opacity="0.501961" cx="215" cy="266" rx="44" ry="30" />
<ellipse fill="#fbfbf4" fill-opacity="0.501961" cx="203" cy="27" rx="32" ry="35" />
<ellipse fill="#57ff54" fill-opacity="0.501961" cx="197" cy="187" rx="9" ry="13" />
<ellipse fill="#5f5eff" fill-opacity="0.501961" cx="93" cy="214" rx="17" ry="14" />
<ellipse fill="#f5f5f1" fill-opacity="0.501961" cx="54" cy="284" rx="168" ry="40" />
<ellipse fill="#56ff5a" fill-opacity="0.501961" cx="116" cy="100" rx="15" ry="8" />
<ellipse fill="#f7f7f3" fill-opacity="0.501961" cx="87" cy="30" rx="53" ry="32" />
<ellipse fill="#f9f9f3" fill-opacity="0.501961" cx="266" cy="89" rx="30" ry="38" />
<ellipse fill="#5eff5f" fill-opacity="0.501961" cx="116" cy="200" rx="13" ry="10" />
<ellipse fill="#5bff5d" fill-opacity="0.501961" cx="100" cy="117" rx="9" ry="15" />
<ellipse fill="#f2f2ef" fill-opacity="0.501961" cx="279" cy="152" rx="30" ry="235" />
<ellipse fill="#f5f5f0" fill-opacity="0.501961" cx="17" cy="143" rx="34" ry="153" />
<ellipse fill="#5aff5c" fill-opacity="0.501961" cx="184" cy="100" rx="11" ry="11" />
<ellipse fill="#5fff63" fill-opacity="0.501961" cx="207" cy="154" rx="8" ry="38" />
<ellipse fill="#ff6465" fill-opacity="0.501961" cx="148" cy="172" rx="37" ry="28" />
<ellipse fill="#ff6465" fill-opacity="0.501961" cx="150" cy="131" rx="40" ry="31" />
<ellipse fill="#62ff65" fill-opacity="0.501961" cx="90" cy="149" rx="11" ry="31" />
<ellipse fill="#5f5dff" fill-opacity="0.501961" cx="95" cy="85" rx="16" ry="15" />
<ellipse fill="#6260ff" fill-opacity="0.501961" cx="208" cy="213" rx="15" ry="16" />
<ellipse fill="#6260ff" fill-opacity="0.501961" cx="186" cy="73" rx="19" ry="14" />
<ellipse fill="#5eff61" fill-opacity="0.501961" cx="184" cy="200" rx="11" ry="11" />
<ellipse fill="#6363ff" fill-opacity="0.501961" cx="117" cy="228" rx="20" ry="14" />
<ellipse fill="#6263ff" fill-opacity="0.501961" cx="185" cy="227" rx="23" ry="13" />
<ellipse fill="#f2f2f2" fill-opacity="0.501961" cx="45" cy="232" rx="28" ry="43" />
<ellipse fill="#6361ff" fill-opacity="0.501961" cx="208" cy="89" rx="12" ry="17" />
<ellipse fill="#65ff64" fill-opacity="0.501961" cx="149" cy="210" rx="29" ry="11" />
<ellipse fill="#f3f3f2" fill-opacity="0.501961" cx="43" cy="83" rx="22" ry="39" />
<ellipse fill="#f3f3f2" fill-opacity="0.501961" cx="266" cy="203" rx="26" ry="42" />
<ellipse fill="#6160ff" fill-opacity="0.501961" cx="62" cy="149" rx="12" ry="37" />
<ellipse fill="#6464ff" fill-opacity="0.501961" cx="122" cy="71" rx="29" ry="12" />
<ellipse fill="#f1f1ef" fill-opacity="0.501961" cx="142" cy="19" rx="267" ry="32" />
<ellipse fill="#64ff61" fill-opacity="0.501961" cx="148" cy="88" rx="24" ry="9" />
<ellipse fill="#6362ff" fill-opacity="0.501961" cx="227" cy="115" rx="12" ry="24" />
<ellipse fill="#6364ff" fill-opacity="0.501961" cx="228" cy="184" rx="13" ry="23" />
<ellipse fill="#f1f1f1" fill-opacity="0.501961" cx="235" cy="251" rx="32" ry="33" />
<ellipse fill="#ff6365" fill-opacity="0.501961" cx="127" cy="151" rx="27" ry="36" />
<ellipse fill="#6464ff" fill-opacity="0.501961" cx="73" cy="119" rx="10" ry="30" />
<ellipse fill="#6363ff" fill-opacity="0.501961" cx="78" cy="195" rx="14" ry="18" />
<ellipse fill="#f2f2f2" fill-opacity="0.501961" cx="231" cy="47" rx="33" ry="30" />
<ellipse fill="#f4f4f2" fill-opacity="0.501961" cx="88" cy="265" rx="34" ry="30" />
<ellipse fill="#5eff64" fill-opacity="0.501961" cx="96" cy="178" rx="10" ry="12" />
<ellipse fill="#ff6165" fill-opacity="0.501961" cx="184" cy="151" rx="16" ry="28" />
<ellipse fill="#61ff61" fill-opacity="0.501961" cx="183" cy="100" rx="15" ry="8" />
<ellipse fill="#66ff63" fill-opacity="0.501961" cx="211" cy="147" rx="9" ry="27" />
<ellipse fill="#62ff61" fill-opacity="0.501961" cx="112" cy="103" rx="11" ry="10" />
<ellipse fill="#6464ff" fill-opacity="0.501961" cx="234" cy="150" rx="14" ry="49" />
<ellipse fill="#6464ff" fill-opacity="0.501961" cx="181" cy="72" rx="28" ry="11" />
<ellipse fill="#6665ff" fill-opacity="0.501961" cx="152" cy="233" rx="49" ry="13" />
<ellipse fill="#62ff62" fill-opacity="0.501961" cx="176" cy="205" rx="11" ry="10" />
<ellipse fill="#6464ff" fill-opacity="0.501961" cx="92" cy="210" rx="13" ry="14" />
<ellipse fill="#6463ff" fill-opacity="0.501961" cx="95" cy="85" rx="20" ry="10" />
<ellipse fill="#6262ff" fill-opacity="0.501961" cx="150" cy="61" rx="34" ry="11" />
<ellipse fill="#61ff64" fill-opacity="0.501961" cx="202" cy="121" rx="6" ry="19" />
<ellipse fill="#63ff64" fill-opacity="0.501961" cx="92" cy="143" rx="9" ry="31" />
<ellipse fill="#f1f1f1" fill-opacity="0.501961" cx="49" cy="68" rx="29" ry="34" />
<ellipse fill="#64ff64" fill-opacity="0.501961" cx="155" cy="92" rx="33" ry="9" />
<ellipse fill="#61ff61" fill-opacity="0.501961" cx="201" cy="181" rx="8" ry="16" />
<ellipse fill="#f2f2f1" fill-opacity="0.501961" cx="51" cy="230" rx="28" ry="27" />
<ellipse fill="#6361ff" fill-opacity="0.501961" cx="83" cy="102" rx="8" ry="19" />
<ellipse fill="#f1f1f1" fill-opacity="0.501961" cx="74" cy="42" rx="34" ry="32" />
<ellipse fill="#ff6464" fill-opacity="0.501961" cx="151" cy="135" rx="43" ry="34" />
<ellipse fill="#6363ff" fill-opacity="0.501961" cx="202" cy="217" rx="18" ry="13" />
<ellipse fill="#6362ff" fill-opacity="0.501961" cx="208" cy="88" rx="18" ry="12" />
<ellipse fill="#63ff62" fill-opacity="0.501961" cx="118" cy="199" rx="18" ry="5" />
<ellipse fill="#f1f1f1" fill-opacity="0.501961" cx="258" cy="212" rx="23" ry="30" />
<ellipse fill="#efefef" fill-opacity="0.501961" cx="55" cy="274" rx="65" ry="52" />
<ellipse fill="#6565ff" fill-opacity="0.501961" cx="70" cy="176" rx="12" ry="29" />
<ellipse fill="#6363ff" fill-opacity="0.501961" cx="120" cy="225" rx="26" ry="8" />
<ellipse fill="#ff6165" fill-opacity="0.501961" cx="150" cy="189" rx="24" ry="11" />
<ellipse fill="#f2f2f1" fill-opacity="0.501961" cx="24" cy="113" rx="31" ry="41" />
<ellipse fill="#6363ff" fill-opacity="0.501961" cx="149" cy="237" rx="35" ry="13" />
<ellipse fill="#efefef" fill-opacity="0.501961" cx="258" cy="274" rx="83" ry="51" />
<ellipse fill="#6563ff" fill-opacity="0.501961" cx="219" cy="198" rx="12" ry="18" />
<ellipse fill="#63ff63" fill-opacity="0.501961" cx="206" cy="129" rx="9" ry="18" />
<ellipse fill="#f0f0f1" fill-opacity="0.501961" cx="253" cy="73" rx="26" ry="34" />
<ellipse fill="#6463ff" fill-opacity="0.501961" cx="105" cy="79" rx="24" ry="9" />
<ellipse fill="#64ff64" fill-opacity="0.501961" cx="102" cy="187" rx="10" ry="11" />
<ellipse fill="#65ff65" fill-opacity="0.501961" cx="192" cy="193" rx="9" ry="12" />
<ellipse fill="#64ff67" fill-opacity="0.501961" cx="103" cy="111" rx="9" ry="11" />
<ellipse fill="#65ff63" fill-opacity="0.501961" cx="210" cy="148" rx="11" ry="24" />
<ellipse fill="#f1f1f1" fill-opacity="0.501961" cx="273" cy="106" rx="29" ry="49" />
<ellipse fill="#63ff63" fill-opacity="0.501961" cx="196" cy="111" rx="11" ry="10" />
<ellipse fill="#64ff64" fill-opacity="0.501961" cx="153" cy="208" rx="35" ry="9" />
<ellipse fill="#6563ff" fill-opacity="0.501961" cx="86" cy="95" rx="14" ry="14" />
<ellipse fill="#f2f2f1" fill-opacity="0.501961" cx="30" cy="200" rx="31" ry="27" />
<ellipse fill="#65ff63" fill-opacity="0.501961" cx="124" cy="96" rx="13" ry="10" />
<ellipse fill="#6565ff" fill-opacity="0.501961" cx="67" cy="132" rx="14" ry="26" />
<ellipse fill="#6463ff" fill-opacity="0.501961" cx="100" cy="218" rx="18" ry="12" />
<ellipse fill="#63ff62" fill-opacity="0.501961" cx="98" cy="119" rx="10" ry="11" />
<ellipse fill="#f2f2f1" fill-opacity="0.501961" cx="272" cy="176" rx="25" ry="30" />
<ellipse fill="#63ff63" fill-opacity="0.501961" cx="114" cy="198" rx="11" ry="10" />
<ellipse fill="#ff6464" fill-opacity="0.501961" cx="133" cy="161" rx="29" ry="31" />
<ellipse fill="#65ff63" fill-opacity="0.501961" cx="90" cy="148" rx="11" ry="24" />
<ellipse fill="#6464ff" fill-opacity="0.501961" cx="233" cy="132" rx="14" ry="26" />
<ellipse fill="#ff6464" fill-opacity="0.501961" cx="176" cy="152" rx="23" ry="35" />
<ellipse fill="#6463ff" fill-opacity="0.501961" cx="201" cy="85" rx="15" ry="10" />
<ellipse fill="#f0f0f0" fill-opacity="0.501961" cx="153" cy="18" rx="299" ry="33" />
<ellipse fill="#f1f1f1" fill-opacity="0.501961" cx="254" cy="217" rx="24" ry="23" />
<ellipse fill="#63ff63" fill-opacity="0.501961" cx="94" cy="170" rx="8" ry="20" />
<ellipse fill="#f0f0f0" fill-opacity="0.501961" cx="47" cy="94" rx="12" ry="33" />
<ellipse fill="#64ff64" fill-opacity="0.501961" cx="171" cy="94" rx="16" ry="9" />
<ellipse fill="#f1f1f1" fill-opacity="0.501961" cx="99" cy="263" rx="29" ry="23" />
<ellipse fill="#6463ff" fill-opacity="0.501961" cx="223" cy="109" rx="13" ry="14" />
</g>
</svg>