<svg xmlns="http://www.w3.org/2000/svg" version="1.1" width="1024" height="1024">
<rect x="0" y="0" width="1024" height="1024" fill="#ccccda" />
<g transform="scale(3.413333) translate(0.5 0.5)">
<polygon fill="#87703d" fill-opacity="0.501961" points="68,60 268,126 117,263" />
<polygon fill="#1743ff" fill-opacity="0.501961" points="65,80 126,257 48,187" />
<polygon fill="#1650f8" fill-opacity="0.501961" points="195,49 261,137 88,62" />
<polygon fill="#1135ff" fill-opacity="0.501961" points="258,141 219,233 120,253" />
<polygon fill="#ff633a" fill-opacity="0.501961" points="208,201 166,74 78,177" />
<polygon fill="#ffffff" fill-opacity="0.501961" points="204,-16 315,1 295,315" />
<polygon fill="#ffffff" fill-opacity="0.501961" points="-16,202 315,296 2,315" />
<polygon fill="#ffffff" fill-opacity="0.501961" points="163,-16 -1,-10 0,182" />
<polygon fill="#3d3aff" fill-opacity="0.501961" points="70,80 45,163 145,48" />
<polygon fill="#3fff45" fill-opacity="0.501961" points="225,132 185,80 112,80" />
<polygon fill="#39ff46" fill-opacity="0.501961" points="85,191 79,125 143,223" />
<polygon fill="#30ff4d" fill-opacity="0.501961" points="225,129 153,224 209,198" />
<polygon fill="#433bff" fill-opacity="0.501961" points="222,216 253,134 219,72" />
<polygon fill="#fffffb" fill-opacity="0.501961" points="126,294 299,315 305,157" />
<polygon fill="#4944ff" fill-opacity="0.501961" points="130,251 61,191 200,242" />
<polygon fill="#fffff9" fill-opacity="0.501961" points="-11,-16 290,95 315,1" />
<polygon fill="#fffff8" fill-opacity="0.501961" points="18,3 86,315 -16,296" />
<polygon fill="#39ff4f" fill-opacity="0.501961" points="91,101 144,78 78,166" />
<polygon fill="#ff4e60" fill-opacity="0.501961" points="206,129 104,112 140,206" />
<polygon fill="#44ff53" fill-opacity="0.501961" points="154,222 103,204 213,192" />
<polygon fill="#47ff52" fill-opacity="0.501961" points="180,84 219,126 216,182" />
<polygon fill="#5d56ff" fill-opacity="0.501961" points="49,130 106,56 184,47" />
<polygon fill="#5d44ff" fill-opacity="0.501961" points="213,69 251,123 129,58" />
<polygon fill="#5f5dff" fill-opacity="0.501961" points="253,152 207,80 236,209" />
<polygon fill="#54ff5b" fill-opacity="0.501961" points="180,83 117,85 81,126" />
<polygon fill="#5bff5e" fill-opacity="0.501961" points="95,105 109,208 79,163" />
<polygon fill="#6052ff" fill-opacity="0.501961" points="50,133 141,253 78,224" />
<polygon fill="#ff5560" fill-opacity="0.501961" points="118,108 181,104 203,162" />
<polygon fill="#f9f9f3" fill-opacity="0.501961" points="138,37 -1,-10 -16,146" />
<polygon fill="#ff4660" fill-opacity="0.501961" points="107,123 103,171 136,200" />
<polygon fill="#5f58ff" fill-opacity="0.501961" points="162,250 92,222 228,218" />
<polygon fill="#fbfbf4" fill-opacity="0.501961" points="249,86 315,96 254,285" />
<polygon fill="#ff5c65" fill-opacity="0.501961" points="118,107 151,204 197,176" />
<polygon fill="#59ff5d" fill-opacity="0.501961" points="191,207 126,217 93,191" />
<polygon fill="#5fff5e" fill-opacity="0.501961" points="214,183 203,153 175,217" />
<polygon fill="#605bff" fill-opacity="0.501961" points="63,193 104,57 55,114" />
<polygon fill="#64ff5b" fill-opacity="0.501961" points="186,87 220,136 138,80" />
<polygon fill="#f9f9f3" fill-opacity="0.501961" points="103,315 177,256 27,230" />
<polygon fill="#6253ff" fill-opacity="0.501961" points="234,159 233,207 168,239" />
<polygon fill="#fefef8" fill-opacity="0.501961" points="-15,200 30,150 90,236" />
<polygon fill="#fbfaf5" fill-opacity="0.501961" points="230,59 79,39 200,-16" />
<polygon fill="#f9f9f4" fill-opacity="0.501961" points="253,180 298,315 202,248" />
<polygon fill="#60ff62" fill-opacity="0.501961" points="152,78 79,147 108,92" />
<polygon fill="#5dff63" fill-opacity="0.501961" points="204,101 222,144 197,200" />
<polygon fill="#6565ff" fill-opacity="0.501961" points="148,51 90,68 54,148" />
<polygon fill="#6362ff" fill-opacity="0.501961" points="245,178 238,98 182,54" />
<polygon fill="#ff5b5f" fill-opacity="0.501961" points="98,147 129,101 169,103" />
<polygon fill="#635dff" fill-opacity="0.501961" points="66,99 50,164 100,238" />
<polygon fill="#62ff65" fill-opacity="0.501961" points="87,139 133,219 90,187" />
<polygon fill="#ff5762" fill-opacity="0.501961" points="175,194 189,115 199,167" />
<polygon fill="#60ff63" fill-opacity="0.501961" points="93,105 191,96 150,79" />
<polygon fill="#f0f0ef" fill-opacity="0.501961" points="-16,21 138,-10 1,191" />
<polygon fill="#605bff" fill-opacity="0.501961" points="162,49 83,76 227,82" />
<polygon fill="#f5f5f1" fill-opacity="0.501961" points="245,95 315,79 167,39" />
<polygon fill="#f0f0ef" fill-opacity="0.501961" points="230,221 315,297 74,302" />
<polygon fill="#66ff63" fill-opacity="0.501961" points="177,217 218,178 133,209" />
<polygon fill="#6265ff" fill-opacity="0.501961" points="71,214 209,225 122,246" />
<polygon fill="#fdfcf4" fill-opacity="0.501961" points="50,104 52,194 28,134" />
<polygon fill="#ff6364" fill-opacity="0.501961" points="168,197 116,188 159,100" />
<polygon fill="#6263ff" fill-opacity="0.501961" points="239,103 250,155 197,239" />
<polygon fill="#65ff62" fill-opacity="0.501961" points="204,104 172,83 220,173" />
<polygon fill="#efefee" fill-opacity="0.501961" points="206,-16 315,-7 305,315" />
<polygon fill="#5eff65" fill-opacity="0.501961" points="162,216 136,221 91,172" />
<polygon fill="#ff6161" fill-opacity="0.501961" points="119,109 116,185 100,140" />
<polygon fill="#ff6365" fill-opacity="0.501961" points="194,121 159,100 171,195" />
<polygon fill="#64ff61" fill-opacity="0.501961" points="100,103 79,147 98,196" />
<polygon fill="#6461ff" fill-opacity="0.501961" points="133,51 199,59 74,100" />
<polygon fill="#efefef" fill-opacity="0.501961" points="5,315 -16,141 119,254" />
<polygon fill="#6365ff" fill-opacity="0.501961" points="108,241 51,171 147,231" />
<polygon fill="#fffff6" fill-opacity="0.501961" points="94,65 121,38 147,40" />
<polygon fill="#63ff63" fill-opacity="0.501961" points="123,86 86,174 82,129" />
<polygon fill="#615fff" fill-opacity="0.501961" points="77,174 85,73 62,104" />
<polygon fill="#6464ff" fill-opacity="0.501961" points="111,62 56,188 52,127" />
<polygon fill="#6462ff" fill-opacity="0.501961" points="240,153 167,236 245,187" />
<polygon fill="#61ff67" fill-opacity="0.501961" points="178,209 222,158 216,127" />
<polygon fill="#6461ff" fill-opacity="0.501961" points="222,99 201,64 146,73" />
<polygon fill="#ff6467" fill-opacity="0.501961" points="160,102 100,156 116,187" />
<polygon fill="#f0f0f0" fill-opacity="0.501961" points="315,274 189,286 261,158" />
<polygon fill="#64ff63" fill-opacity="0.501961" points="104,97 156,79 204,103" />
<polygon fill="#f4f4f2" fill-opacity="0.501961" points="74,248 194,250 166,282" />
<polygon fill="#ff6363" fill-opacity="0.501961" points="122,192 199,133 197,170" />
<polygon fill="#f0f0f0" fill-opacity="0.501961" points="98,295 -16,315 36,130" />
<polygon fill="#63ff62" fill-opacity="0.501961" points="203,197 219,169 199,112" />
<polygon fill="#64ff62" fill-opacity="0.501961" points="115,199 201,199 168,218" />
<polygon fill="#f0f0f0" fill-opacity="0.501961" points="282,51 127,-16 57,49" />
<polygon fill="#6361ff" fill-opacity="0.501961" points="148,226 189,242 243,192" />
<polygon fill="#6465ff" fill-opacity="0.501961" points="250,136 219,204 223,91" />
<polygon fill="#6462ff" fill-opacity="0.501961" points="74,214 108,210 51,139" />
<polygon fill="#63ff64" fill-opacity="0.501961" points="111,113 173,81 131,82" />
<polygon fill="#f0f0f0" fill-opacity="0.501961" points="44,163 65,72 -16,97" />
<polygon fill="#f8f8f3" fill-opacity="0.501961" points="101,55 51,108 68,58" />
<polygon fill="#6565ff" fill-opacity="0.501961" points="140,249 199,232 67,205" />
<polygon fill="#62ff64" fill-opacity="0.501961" points="204,133 155,80 202,102" />
<polygon fill="#6262ff" fill-opacity="0.501961" points="219,174 230,89 244,114" />
<polygon fill="#fffdef" fill-opacity="0.501961" points="176,49 205,50 210,67" />
<polygon fill="#fbfbf4" fill-opacity="0.501961" points="209,59 244,107 229,68" />
<polygon fill="#6362ff" fill-opacity="0.501961" points="203,93 109,58 147,50" />
<polygon fill="#ff6363" fill-opacity="0.501961" points="145,199 137,102 119,189" />
<polygon fill="#ff6067" fill-opacity="0.501961" points="159,100 141,100 119,140" />
<polygon fill="#6461ff" fill-opacity="0.501961" points="233,131 202,67 191,90" />
<polygon fill="#f0f0f0" fill-opacity="0.501961" points="315,298 69,300 215,230" />
<polygon fill="#64ff63" fill-opacity="0.501961" points="95,193 80,150 131,202" />
<polygon fill="#ff5962" fill-opacity="0.501961" points="158,101 198,132 182,110" />
<polygon fill="#fffff2" fill-opacity="0.501961" points="125,258 141,251 107,242" />
<polygon fill="#ff6464" fill-opacity="0.501961" points="137,102 155,199 104,130" />
<polygon fill="#ff6266" fill-opacity="0.501961" points="151,125 193,174 181,189" />
<polygon fill="#f1f1f1" fill-opacity="0.501961" points="247,243 310,164 251,108" />
<polygon fill="#63ff66" fill-opacity="0.501961" points="159,206 222,160 188,210" />
<polygon fill="#6362ff" fill-opacity="0.501961" points="69,208 102,236 67,116" />
<polygon fill="#6364ff" fill-opacity="0.501961" points="87,72 77,132 130,52" />
<polygon fill="#6262ff" fill-opacity="0.501961" points="170,248 202,235 118,216" />
<polygon fill="#ff6263" fill-opacity="0.501961" points="169,196 189,119 143,199" />
<polygon fill="#64ff64" fill-opacity="0.501961" points="85,175 143,202 118,213" />
<polygon fill="#62ff64" fill-opacity="0.501961" points="134,89 95,106 99,133" />
<polygon fill="#6263ff" fill-opacity="0.501961" points="197,61 221,78 143,76" />
<polygon fill="#6463ff" fill-opacity="0.501961" points="206,229 222,155 237,199" />
<polygon fill="#63ff64" fill-opacity="0.501961" points="81,163 102,104 98,196" />
<polygon fill="#65ff64" fill-opacity="0.501961" points="205,158 212,113 187,89" />
<polygon fill="#6363ff" fill-opacity="0.501961" points="193,221 245,119 248,173" />
<polygon fill="#fffff9" fill-opacity="0.501961" points="250,169 240,195 253,179" />
<polygon fill="#64ff63" fill-opacity="0.501961" points="96,194 115,210 102,164" />
<polygon fill="#6363ff" fill-opacity="0.501961" points="54,122 68,92 137,76" />
<polygon fill="#605eff" fill-opacity="0.501961" points="80,163 51,154 57,185" />
<polygon fill="#faf9f0" fill-opacity="0.501961" points="232,213 207,248 191,246" />
<polygon fill="#ff6363" fill-opacity="0.501961" points="200,141 126,153 197,161" />
<polygon fill="#6463ff" fill-opacity="0.501961" points="184,55 228,115 136,55" />
<polygon fill="#f6f6f1" fill-opacity="0.501961" points="51,210 90,231 48,185" />
<polygon fill="#6363ff" fill-opacity="0.501961" points="58,188 130,219 86,226" />
<polygon fill="#ff6263" fill-opacity="0.501961" points="133,103 109,121 185,115" />
<polygon fill="#efeff0" fill-opacity="0.501961" points="11,0 103,-13 -12,296" />
<polygon fill="#6262ff" fill-opacity="0.501961" points="136,248 168,249 101,202" />
<polygon fill="#5e5fff" fill-opacity="0.501961" points="227,178 247,175 229,212" />
<polygon fill="#f0f0f0" fill-opacity="0.501961" points="193,54 264,113 212,-15" />
<polygon fill="#64ff64" fill-opacity="0.501961" points="218,169 214,137 177,205" />
<polygon fill="#f9f9f2" fill-opacity="0.501961" points="249,129 241,101 267,139" />
<polygon fill="#ff6365" fill-opacity="0.501961" points="101,142 106,172 175,192" />
<polygon fill="#64ff64" fill-opacity="0.501961" points="106,95 161,81 80,136" />
<polygon fill="#65ff61" fill-opacity="0.501961" points="88,113 106,95 123,107" />
<polygon fill="#64ff65" fill-opacity="0.501961" points="118,87 145,79 186,108" />
<polygon fill="#ff6163" fill-opacity="0.501961" points="111,173 102,136 113,117" />
<polygon fill="#f0f0f0" fill-opacity="0.501961" points="-16,302 56,213 213,297" />
<polygon fill="#6465ff" fill-opacity="0.501961" points="230,89 220,133 199,65" />
<polygon fill="#f2f2f0" fill-opacity="0.501961" points="79,54 119,48 65,87" />
<polygon fill="#6363ff" fill-opacity="0.501961" points="94,194 51,149 55,122" />
<polygon fill="#f0f0f0" fill-opacity="0.501961" points="118,261 315,307 262,225" />
<polygon fill="#f0f0f0" fill-opacity="0.501961" points="68,225 46,151 -16,259" />
<polygon fill="#f0f0f0" fill-opacity="0.501961" points="105,50 315,50 114,-16" />
<polygon fill="#63ff62" fill-opacity="0.501961" points="166,218 142,220 111,185" />
<polygon fill="#6362ff" fill-opacity="0.501961" points="234,204 207,232 174,216" />
<polygon fill="#ff6665" fill-opacity="0.501961" points="199,135 166,102 133,197" />
<polygon fill="#6464ff" fill-opacity="0.501961" points="181,55 141,50 77,106" />
<polygon fill="#6564ff" fill-opacity="0.501961" points="221,179 206,232 165,237" />
<polygon fill="#6463ff" fill-opacity="0.501961" points="197,93 246,160 246,125" />
<polygon fill="#62ff65" fill-opacity="0.501961" points="214,120 198,134 221,138" />
<polygon fill="#63ff64" fill-opacity="0.501961" points="107,94 100,146 87,119" />
<polygon fill="#6362ff" fill-opacity="0.501961" points="114,243 160,220 95,232" />
<polygon fill="#f7f6f0" fill-opacity="0.501961" points="210,233 227,229 239,202" />
<polygon fill="#63ff64" fill-opacity="0.501961" points="196,97 144,80 193,118" />
<polygon fill="#66ff60" fill-opacity="0.501961" points="196,203 179,214 140,204" />
<polygon fill="#64ff65" fill-opacity="0.501961" points="84,124 122,209 87,181" />
<polygon fill="#ff5f62" fill-opacity="0.501961" points="131,194 158,199 188,182" />
<polygon fill="#f6f5ef" fill-opacity="0.501961" points="53,117 76,76 58,88" />
<polygon fill="#ff6065" fill-opacity="0.501961" points="109,177 124,191 106,148" />
<polygon fill="#f0f0f0" fill-opacity="0.501961" points="94,-16 138,48 101,60" />
<polygon fill="#63ff63" fill-opacity="0.501961" points="220,157 211,185 197,128" />
<polygon fill="#6564ff" fill-opacity="0.501961" points="64,198 146,244 51,151" />
<polygon fill="#eff0f0" fill-opacity="0.501961" points="-16,-15 289,91 315,-6" />
<polygon fill="#6564ff" fill-opacity="0.501961" points="220,133 241,109 226,173" />
<polygon fill="#63ff65" fill-opacity="0.501961" points="199,183 136,212 174,216" />
<polygon fill="#64ff5c" fill-opacity="0.501961" points="220,158 220,141 210,170" />
<polygon fill="#6464ff" fill-opacity="0.501961" points="194,79 169,52 123,78" />
<polygon fill="#64ff63" fill-opacity="0.501961" points="80,147 102,161 87,118" />
<polygon fill="#64ff63" fill-opacity="0.501961" points="181,86 158,79 119,106" />
<polygon fill="#6565ff" fill-opacity="0.501961" points="91,108 60,107 59,177" />
<polygon fill="#64ff65" fill-opacity="0.501961" points="189,199 103,200 128,217" />
<polygon fill="#6463ff" fill-opacity="0.501961" points="135,220 97,219 90,202" />
<polygon fill="#6464ff" fill-opacity="0.501961" points="245,171 178,217 204,234" />
<polygon fill="#f1f1f0" fill-opacity="0.501961" points="103,264 93,234 153,261" />
<polygon fill="#ff6365" fill-opacity="0.501961" points="128,175 194,173 177,192" />
<polygon fill="#6362ff" fill-opacity="0.501961" points="126,53 141,80 105,61" />
<polygon fill="#65ff62" fill-opacity="0.501961" points="202,150 206,193 192,205" />
<polygon fill="#6464ff" fill-opacity="0.501961" points="135,62 88,112 72,88" />
<polygon fill="#64ff62" fill-opacity="0.501961" points="200,157 219,164 213,182" />
<polygon fill="#ff6564" fill-opacity="0.501961" points="103,167 194,127 119,113" />
<polygon fill="#6565ff" fill-opacity="0.501961" points="166,219 103,237 156,249" />
<polygon fill="#ff6464" fill-opacity="0.501961" points="143,199 107,174 162,104" />
<polygon fill="#6462ff" fill-opacity="0.501961" points="84,176 101,204 60,178" />
<polygon fill="#6463ff" fill-opacity="0.501961" points="71,199 58,186 81,134" />
<polygon fill="#6565ff" fill-opacity="0.501961" points="169,52 113,69 227,93" />
<polygon fill="#64ff64" fill-opacity="0.501961" points="136,219 180,208 123,195" />
<polygon fill="#63ff64" fill-opacity="0.501961" points="193,98 203,135 167,86" />
<polygon fill="#ff6165" fill-opacity="0.501961" points="163,102 179,108 189,130" />
<polygon fill="#f0f0f0" fill-opacity="0.501961" points="315,43 254,276 250,134" />
<polygon fill="#f0f0f0" fill-opacity="0.501961" points="251,127 315,111 208,40" />
<polygon fill="#f0f0f0" fill-opacity="0.501961" points="22,124 -13,197 74,217" />
<polygon fill="#ff6364" fill-opacity="0.501961" points="166,171 101,145 103,164" />
<polygon fill="#ff6364" fill-opacity="0.501961" points="197,167 141,154 199,142" />
<polygon fill="#6464ff" fill-opacity="0.501961" points="250,146 238,103 210,197" />
<polygon fill="#6363ff" fill-opacity="0.501961" points="65,98 54,123 83,175" />
<polygon fill="#5e60ff" fill-opacity="0.501961" points="75,104 95,67 81,78" />
<polygon fill="#66ff61" fill-opacity="0.501961" points="94,192 105,202 112,183" />
<polygon fill="#66ff60" fill-opacity="0.501961" points="187,90 177,107 175,84" />
<polygon fill="#ff6364" fill-opacity="0.501961" points="165,106 108,122 124,106" />
<polygon fill="#62ff65" fill-opacity="0.501961" points="162,98 193,115 198,100" />
<polygon fill="#5759ff" fill-opacity="0.501961" points="97,228 104,238 82,223" />
<polygon fill="#f0f0f0" fill-opacity="0.501961" points="227,220 256,165 315,297" />
<polygon fill="#6464ff" fill-opacity="0.501961" points="209,208 102,236 174,247" />
<polygon fill="#ff6464" fill-opacity="0.501961" points="194,155 112,181 136,197" />
<polygon fill="#5e5fff" fill-opacity="0.501961" points="226,102 229,88 240,105" />
<polygon fill="#ff6465" fill-opacity="0.501961" points="163,102 141,100 172,171" />
<polygon fill="#fcfdf1" fill-opacity="0.501961" points="80,222 87,233 101,238" />
<polygon fill="#64ff64" fill-opacity="0.501961" points="95,106 82,169 109,120" />
<polygon fill="#5e5eff" fill-opacity="0.501961" points="164,50 173,65 137,50" />
<polygon fill="#64ff64" fill-opacity="0.501961" points="109,181 159,220 118,212" />
<polygon fill="#6260ff" fill-opacity="0.501961" points="176,53 153,72 192,59" />
<polygon fill="#6463ff" fill-opacity="0.501961" points="97,100 52,132 54,174" />
<polygon fill="#63ff64" fill-opacity="0.501961" points="188,183 162,206 208,189" />
<polygon fill="#f1f2f1" fill-opacity="0.501961" points="54,120 35,122 41,172" />
<polygon fill="#ff6364" fill-opacity="0.501961" points="139,198 186,179 164,198" />
<polygon fill="#f0f0f0" fill-opacity="0.501961" points="52,212 -16,163 50,61" />
<polygon fill="#f7f7f3" fill-opacity="0.501961" points="177,254 196,243 155,251" />
<polygon fill="#f3f3f0" fill-opacity="0.501961" points="195,57 153,47 190,42" />
<polygon fill="#64ff64" fill-opacity="0.501961" points="89,116 110,92 102,136" />
<polygon fill="#5f5aff" fill-opacity="0.501961" points="70,208 73,195 59,190" />
<polygon fill="#6564ff" fill-opacity="0.501961" points="139,79 114,57 65,96" />
<polygon fill="#63ff65" fill-opacity="0.501961" points="103,100 123,85 166,99" />
<polygon fill="#64ff63" fill-opacity="0.501961" points="214,119 200,160 201,102" />
<polygon fill="#64ff64" fill-opacity="0.501961" points="157,79 179,107 128,83" />
<polygon fill="#f0f0f0" fill-opacity="0.501961" points="315,173 258,134 239,205" />
<polygon fill="#6464ff" fill-opacity="0.501961" points="89,229 70,201 170,229" />
<polygon fill="#6160ff" fill-opacity="0.501961" points="248,167 231,168 239,195" />
<polygon fill="#ff6464" fill-opacity="0.501961" points="182,188 147,156 193,175" />
<polygon fill="#6263ff" fill-opacity="0.501961" points="158,79 136,51 113,57" />
<polygon fill="#f0f0f0" fill-opacity="0.501961" points="310,87 176,37 310,161" />
<polygon fill="#65ff62" fill-opacity="0.501961" points="80,154 93,190 108,176" />
<polygon fill="#63ff65" fill-opacity="0.501961" points="180,202 218,166 198,164" />
<polygon fill="#f1f1f1" fill-opacity="0.501961" points="150,47 85,14 126,52" />
<polygon fill="#6563ff" fill-opacity="0.501961" points="76,105 63,158 81,164" />
<polygon fill="#ff6464" fill-opacity="0.501961" points="193,125 194,171 167,196" />
<polygon fill="#64ff64" fill-opacity="0.501961" points="136,100 87,126 125,84" />
<polygon fill="#6362ff" fill-opacity="0.501961" points="201,235 185,243 178,215" />
<polygon fill="#ff6264" fill-opacity="0.501961" points="114,184 158,187 133,196" />
<polygon fill="#66ff60" fill-opacity="0.501961" points="178,106 203,104 193,94" />
<polygon fill="#6260ff" fill-opacity="0.501961" points="229,211 196,225 217,225" />
<polygon fill="#6465ff" fill-opacity="0.501961" points="111,90 105,61 53,126" />
<polygon fill="#f0f0f0" fill-opacity="0.501961" points="215,227 315,305 171,259" />
<polygon fill="#6464ff" fill-opacity="0.501961" points="161,59 226,125 224,82" />
<polygon fill="#f0f0f0" fill-opacity="0.501961" points="45,103 129,40 1,-16" />
<polygon fill="#f8f7f0" fill-opacity="0.501961" points="193,58 213,69 202,56" />
<polygon fill="#66ff63" fill-opacity="0.501961" points="205,130 210,113 219,132" />
<polygon fill="#65ff61" fill-opacity="0.501961" points="172,195 173,216 187,209" />
<polygon fill="#65ff61" fill-opacity="0.501961" points="141,79 159,79 141,100" />
<polygon fill="#ff6161" fill-opacity="0.501961" points="190,129 198,163 199,141" />
<polygon fill="#6464ff" fill-opacity="0.501961" points="244,170 183,62 246,125" />
<polygon fill="#f1f1f0" fill-opacity="0.501961" points="94,240 60,197 48,234" />
<polygon fill="#6061ff" fill-opacity="0.501961" points="250,142 240,157 244,116" />
<polygon fill="#6463ff" fill-opacity="0.501961" points="194,62 184,87 198,94" />
<polygon fill="#6362ff" fill-opacity="0.501961" points="93,108 109,59 95,67" />
<polygon fill="#64ff63" fill-opacity="0.501961" points="121,191 145,220 169,217" />
<polygon fill="#ff6364" fill-opacity="0.501961" points="131,104 102,163 104,131" />
<polygon fill="#f0f0f0" fill-opacity="0.501961" points="282,234 193,257 241,197" />
<polygon fill="#6565ff" fill-opacity="0.501961" points="246,133 236,201 185,226" />
<polygon fill="#ff5d63" fill-opacity="0.501961" points="125,107 114,124 117,113" />
<polygon fill="#6462ff" fill-opacity="0.501961" points="74,154 69,144 84,124" />
<polygon fill="#6263ff" fill-opacity="0.501961" points="81,78 68,95 86,122" />
<polygon fill="#6363ff" fill-opacity="0.501961" points="249,164 236,201 224,181" />
<polygon fill="#f1f1f0" fill-opacity="0.501961" points="58,105 37,80 79,77" />
<polygon fill="#fafaef" fill-opacity="0.501961" points="118,54 97,63 106,54" />
<polygon fill="#5e5fff" fill-opacity="0.501961" points="65,130 51,139 53,126" />
<polygon fill="#ff6464" fill-opacity="0.501961" points="134,103 198,137 169,104" />
<polygon fill="#63ff65" fill-opacity="0.501961" points="100,111 84,175 101,166" />
<polygon fill="#63ff64" fill-opacity="0.501961" points="125,215 110,207 161,199" />
<polygon fill="#65ff63" fill-opacity="0.501961" points="117,88 137,102 101,100" />
<polygon fill="#6262ff" fill-opacity="0.501961" points="111,241 129,247 111,209" />
<polygon fill="#6465ff" fill-opacity="0.501961" points="223,82 221,158 243,111" />
<polygon fill="#5e60ff" fill-opacity="0.501961" points="211,71 233,92 220,89" />
<polygon fill="#ff6364" fill-opacity="0.501961" points="101,159 145,126 101,142" />
<polygon fill="#6464ff" fill-opacity="0.501961" points="209,191 184,244 162,241" />
<polygon fill="#f0f0f0" fill-opacity="0.501961" points="145,250 145,315 70,242" />
<polygon fill="#65ff63" fill-opacity="0.501961" points="206,192 193,205 189,182" />
<polygon fill="#6463ff" fill-opacity="0.501961" points="174,53 203,65 206,104" />
<polygon fill="#6464ff" fill-opacity="0.501961" points="114,218 154,221 160,249" />
<polygon fill="#f0f0f0" fill-opacity="0.501961" points="205,235 315,307 126,272" />
<polygon fill="#68ff5f" fill-opacity="0.501961" points="88,134 80,143 81,159" />
<polygon fill="#6565ff" fill-opacity="0.501961" points="119,55 71,89 51,159" />
<polygon fill="#ff6464" fill-opacity="0.501961" points="129,105 155,101 142,199" />
<polygon fill="#f0f0f0" fill-opacity="0.501961" points="102,238 18,259 77,222" />
<polygon fill="#ff6363" fill-opacity="0.501961" points="185,113 195,127 152,113" />
<polygon fill="#6262ff" fill-opacity="0.501961" points="51,143 67,163 54,174" />
<polygon fill="#63ff64" fill-opacity="0.501961" points="199,170 185,187 210,185" />
<polygon fill="#f1f1f0" fill-opacity="0.501961" points="246,111 229,86 258,89" />
<polygon fill="#f0f0f0" fill-opacity="0.501961" points="253,149 245,112 315,162" />
<polygon fill="#ff6365" fill-opacity="0.501961" points="116,185 150,175 104,168" />
<polygon fill="#63ff64" fill-opacity="0.501961" points="192,120 205,146 205,106" />
<polygon fill="#f0f0f0" fill-opacity="0.501961" points="211,51 150,-16 74,48" />
<polygon fill="#6362ff" fill-opacity="0.501961" points="56,183 73,194 78,218" />
<polygon fill="#63ff64" fill-opacity="0.501961" points="128,104 91,113 81,139" />
<polygon fill="#6464ff" fill-opacity="0.501961" points="218,121 233,202 246,123" />
<polygon fill="#f1f1f0" fill-opacity="0.501961" points="44,133 57,192 31,188" />
<polygon fill="#64ff64" fill-opacity="0.501961" points="91,144 87,180 127,214" />
</g>
</svg>