<svg xmlns="http://www.w3.org/2000/svg" version="1.1" width="1024" height="1024">
<rect x="0" y="0" width="1024" height="1024" fill="#ccccda" />
<g transform="scale(3.413333) translate(0.5 0.5)">
<polygon fill="#857241" fill-opacity="0.501961" points="263,99 138,270 52,78" />
<polygon fill="#1239ff" fill-opacity="0.501961" points="246,94 60,84 156,44" />
<polygon fill="#1135ff" fill-opacity="0.501961" points="134,255 52,196 58,96" />
<polygon fill="#153dff" fill-opacity="0.501961" points="245,204 151,260 248,107" />
<polygon fill="#ff6038" fill-opacity="0.501961" points="83,183 212,196 157,74" />
<polygon fill="#ffffff" fill-opacity="0.501961" points="315,-8 155,-16 315,223" />
<polygon fill="#ffffff" fill-opacity="0.501961" points="315,294 -16,199 4,315" />
<polygon fill="#3a3bff" fill-opacity="0.501961" points="71,216 136,253 220,221" />
<polygon fill="#37ff41" fill-opacity="0.501961" points="226,146 137,223 204,203" />
<polygon fill="#ffffff" fill-opacity="0.501961" points="138,-11 -16,1 -16,232" />
<polygon fill="#ffffff" fill-opacity="0.501961" points="315,302 292,95 181,303" />
<polygon fill="#30ff48" fill-opacity="0.501961" points="100,97 216,108 153,73" />
<polygon fill="#2eff44" fill-opacity="0.501961" points="116,216 76,163 92,103" />
<polygon fill="#4041ff" fill-opacity="0.501961" points="242,103 186,52 242,194" />
<polygon fill="#4641ff" fill-opacity="0.501961" points="143,42 48,169 61,96" />
<polygon fill="#39ff48" fill-opacity="0.501961" points="211,196 221,131 188,88" />
<polygon fill="#fffff9" fill-opacity="0.501961" points="-16,62 315,38 97,-16" />
<polygon fill="#fffff7" fill-opacity="0.501961" points="133,308 1,99 -16,315" />
<polygon fill="#3eff50" fill-opacity="0.501961" points="189,212 81,180 128,220" />
<polygon fill="#ff4c60" fill-opacity="0.501961" points="206,133 138,205 107,113" />
<polygon fill="#48ff4f" fill-opacity="0.501961" points="94,105 144,77 79,162" />
<polygon fill="#5e5aff" fill-opacity="0.501961" points="69,206 157,251 214,232" />
<polygon fill="#5f59ff" fill-opacity="0.501961" points="253,149 165,66 219,69" />
<polygon fill="#5e5aff" fill-opacity="0.501961" points="161,50 45,143 102,58" />
<polygon fill="#ff595f" fill-opacity="0.501961" points="198,121 125,103 95,161" />
<polygon fill="#5eff5d" fill-opacity="0.501961" points="78,154 159,220 98,200" />
<polygon fill="#5bff54" fill-opacity="0.501961" points="220,139 181,84 138,79" />
<polygon fill="#fbfbf4" fill-opacity="0.501961" points="315,249 98,248 139,315" />
<polygon fill="#ff4e5f" fill-opacity="0.501961" points="183,192 203,137 142,201" />
<polygon fill="#61ff5e" fill-opacity="0.501961" points="210,107 219,172 185,211" />
<polygon fill="#604fff" fill-opacity="0.501961" points="254,138 159,248 219,224" />
<polygon fill="#5e57ff" fill-opacity="0.501961" points="52,127 74,217 87,70" />
<polygon fill="#f8f8f3" fill-opacity="0.501961" points="299,-16 314,310 217,40" />
<polygon fill="#6051ff" fill-opacity="0.501961" points="220,79 176,51 85,78" />
<polygon fill="#f9f9f3" fill-opacity="0.501961" points="87,62 21,167 -16,-16" />
<polygon fill="#635cff" fill-opacity="0.501961" points="101,241 167,237 56,182" />
<polygon fill="#ff5860" fill-opacity="0.501961" points="141,99 202,165 180,105" />
<polygon fill="#ff6065" fill-opacity="0.501961" points="103,124 200,163 123,196" />
<polygon fill="#5fff62" fill-opacity="0.501961" points="186,87 124,82 83,118" />
<polygon fill="#fffff8" fill-opacity="0.501961" points="3,209 66,217 43,134" />
<polygon fill="#5cff66" fill-opacity="0.501961" points="172,218 218,171 130,216" />
<polygon fill="#6262ff" fill-opacity="0.501961" points="249,176 183,67 250,124" />
<polygon fill="#f5f5f2" fill-opacity="0.501961" points="278,-1 251,77 -7,-6" />
<polygon fill="#f9f9f3" fill-opacity="0.501961" points="263,185 182,254 315,293" />
<polygon fill="#5fff66" fill-opacity="0.501961" points="79,140 102,195 100,100" />
<polygon fill="#5fff65" fill-opacity="0.501961" points="184,87 214,117 214,184" />
<polygon fill="#6260ff" fill-opacity="0.501961" points="245,113 216,75 225,192" />
<polygon fill="#5fff61" fill-opacity="0.501961" points="141,221 101,199 192,200" />
<polygon fill="#6155ff" fill-opacity="0.501961" points="73,134 51,167 96,211" />
<polygon fill="#6062ff" fill-opacity="0.501961" points="100,239 228,200 152,250" />
<polygon fill="#ff5c5e" fill-opacity="0.501961" points="107,121 103,170 137,101" />
<polygon fill="#f2f2f1" fill-opacity="0.501961" points="315,163 250,46 249,204" />
<polygon fill="#61ff62" fill-opacity="0.501961" points="81,165 137,79 83,127" />
<polygon fill="#f1f1f0" fill-opacity="0.501961" points="64,88 -16,0 211,-16" />
<polygon fill="#ff5c62" fill-opacity="0.501961" points="99,155 175,193 131,196" />
<polygon fill="#6668ff" fill-opacity="0.501961" points="50,159 73,83 139,50" />
<polygon fill="#62ff66" fill-opacity="0.501961" points="134,218 84,137 85,180" />
<polygon fill="#ff6565" fill-opacity="0.501961" points="192,179 195,123 101,142" />
<polygon fill="#63ff65" fill-opacity="0.501961" points="124,84 167,81 218,124" />
<polygon fill="#efefef" fill-opacity="0.501961" points="195,273 40,215 -16,315" />
<polygon fill="#60ff63" fill-opacity="0.501961" points="215,132 173,217 205,194" />
<polygon fill="#fffff2" fill-opacity="0.501961" points="240,94 219,58 193,53" />
<polygon fill="#60ff61" fill-opacity="0.501961" points="221,143 182,97 216,174" />
<polygon fill="#6463ff" fill-opacity="0.501961" points="210,231 250,158 142,250" />
<polygon fill="#6162ff" fill-opacity="0.501961" points="51,137 55,179 106,82" />
<polygon fill="#615dff" fill-opacity="0.501961" points="122,54 87,71 188,82" />
<polygon fill="#fffff7" fill-opacity="0.501961" points="50,111 37,161 51,169" />
<polygon fill="#ffffef" fill-opacity="0.501961" points="227,217 254,195 255,166" />
<polygon fill="#6464ff" fill-opacity="0.501961" points="232,118 135,54 207,64" />
<polygon fill="#6464ff" fill-opacity="0.501961" points="245,190 110,241 187,245" />
<polygon fill="#efefef" fill-opacity="0.501961" points="211,232 315,295 36,315" />
<polygon fill="#5eff61" fill-opacity="0.501961" points="147,220 172,217 114,188" />
<polygon fill="#ff5b5b" fill-opacity="0.501961" points="168,103 200,162 197,130" />
<polygon fill="#ff6266" fill-opacity="0.501961" points="132,192 133,103 165,100" />
<polygon fill="#6561ff" fill-opacity="0.501961" points="244,116 208,192 248,174" />
<polygon fill="#625eff" fill-opacity="0.501961" points="77,154 74,215 105,238" />
<polygon fill="#f0f0f0" fill-opacity="0.501961" points="95,59 10,-16 -16,193" />
<polygon fill="#f2f2f1" fill-opacity="0.501961" points="263,-16 71,52 199,48" />
<polygon fill="#ff535a" fill-opacity="0.501961" points="103,133 101,159 119,111" />
<polygon fill="#ff6366" fill-opacity="0.501961" points="193,176 103,157 169,197" />
<polygon fill="#f1f1f0" fill-opacity="0.501961" points="-16,205 106,253 49,182" />
<polygon fill="#f1f1f0" fill-opacity="0.501961" points="240,97 260,171 315,134" />
<polygon fill="#61ff64" fill-opacity="0.501961" points="172,84 82,125 109,92" />
<polygon fill="#6564ff" fill-opacity="0.501961" points="161,249 75,216 86,188" />
<polygon fill="#ff5866" fill-opacity="0.501961" points="103,165 102,135 120,189" />
<polygon fill="#6362ff" fill-opacity="0.501961" points="91,96 64,199 52,163" />
<polygon fill="#f0f0f0" fill-opacity="0.501961" points="310,-16 177,48 283,112" />
<polygon fill="#64ff62" fill-opacity="0.501961" points="195,205 144,206 217,177" />
<polygon fill="#fffff5" fill-opacity="0.501961" points="124,249 173,249 140,264" />
<polygon fill="#6160ff" fill-opacity="0.501961" points="207,103 190,57 139,50" />
<polygon fill="#6464ff" fill-opacity="0.501961" points="80,78 167,54 52,128" />
<polygon fill="#65ff65" fill-opacity="0.501961" points="197,193 202,106 221,156" />
<polygon fill="#f0f0ef" fill-opacity="0.501961" points="315,213 290,74 230,218" />
<polygon fill="#ff6465" fill-opacity="0.501961" points="132,196 189,117 165,101" />
<polygon fill="#66ff62" fill-opacity="0.501961" points="96,196 104,114 80,148" />
<polygon fill="#6565ff" fill-opacity="0.501961" points="143,221 117,244 62,200" />
<polygon fill="#62ff66" fill-opacity="0.501961" points="216,120 196,94 140,91" />
<polygon fill="#6361ff" fill-opacity="0.501961" points="245,182 221,220 221,98" />
<polygon fill="#fefef5" fill-opacity="0.501961" points="84,70 100,50 131,46" />
<polygon fill="#64ff65" fill-opacity="0.501961" points="154,219 92,165 106,204" />
<polygon fill="#64ff64" fill-opacity="0.501961" points="176,83 201,100 127,99" />
<polygon fill="#62ff62" fill-opacity="0.501961" points="215,125 178,108 222,145" />
<polygon fill="#ff5e64" fill-opacity="0.501961" points="186,118 194,175 200,149" />
<polygon fill="#ff6362" fill-opacity="0.501961" points="168,198 132,196 101,145" />
<polygon fill="#62ff65" fill-opacity="0.501961" points="165,206 214,157 187,210" />
<polygon fill="#6464ff" fill-opacity="0.501961" points="218,76 186,56 222,134" />
<polygon fill="#6463ff" fill-opacity="0.501961" points="128,53 185,68 112,86" />
<polygon fill="#fdfcf6" fill-opacity="0.501961" points="227,84 261,103 245,109" />
<polygon fill="#6463ff" fill-opacity="0.501961" points="235,204 250,160 215,110" />
<polygon fill="#eeeeef" fill-opacity="0.501961" points="-16,185 54,118 33,245" />
<polygon fill="#61ff64" fill-opacity="0.501961" points="131,218 162,204 132,197" />
<polygon fill="#6463ff" fill-opacity="0.501961" points="118,244 66,204 77,162" />
<polygon fill="#6160ff" fill-opacity="0.501961" points="219,171 190,241 214,227" />
<polygon fill="#6464ff" fill-opacity="0.501961" points="250,149 187,86 231,89" />
<polygon fill="#f2f1f0" fill-opacity="0.501961" points="80,230 47,166 -16,187" />
<polygon fill="#68ff60" fill-opacity="0.501961" points="115,88 170,99 134,81" />
<polygon fill="#6060ff" fill-opacity="0.501961" points="55,120 69,92 81,140" />
<polygon fill="#ff6565" fill-opacity="0.501961" points="196,154 141,101 104,131" />
<polygon fill="#5858ff" fill-opacity="0.501961" points="136,249 162,249 113,233" />
<polygon fill="#f0f0f0" fill-opacity="0.501961" points="315,315 160,266 232,215" />
<polygon fill="#f7f7f2" fill-opacity="0.501961" points="55,81 72,80 47,131" />
<polygon fill="#63ff63" fill-opacity="0.501961" points="167,82 200,132 208,109" />
<polygon fill="#61ff63" fill-opacity="0.501961" points="121,86 99,143 100,101" />
<polygon fill="#fffff1" fill-opacity="0.501961" points="102,246 119,246 86,230" />
<polygon fill="#63ff64" fill-opacity="0.501961" points="90,119 103,167 83,172" />
<polygon fill="#ff6464" fill-opacity="0.501961" points="187,184 106,162 200,157" />
<polygon fill="#65ff63" fill-opacity="0.501961" points="107,206 156,206 86,179" />
<polygon fill="#f0f0f0" fill-opacity="0.501961" points="134,37 222,68 315,-16" />
<polygon fill="#f0f0f0" fill-opacity="0.501961" points="133,257 284,315 191,243" />
<polygon fill="#66ff64" fill-opacity="0.501961" points="180,191 131,217 164,219" />
<polygon fill="#ff6465" fill-opacity="0.501961" points="109,176 103,133 181,192" />
<polygon fill="#6564ff" fill-opacity="0.501961" points="165,236 228,172 218,224" />
<polygon fill="#6463ff" fill-opacity="0.501961" points="133,65 184,56 186,87" />
<polygon fill="#f0f0f0" fill-opacity="0.501961" points="250,80 251,184 315,134" />
<polygon fill="#6263ff" fill-opacity="0.501961" points="246,119 230,88 179,66" />
<polygon fill="#6362ff" fill-opacity="0.501961" points="119,224 75,166 56,179" />
<polygon fill="#63ff61" fill-opacity="0.501961" points="145,79 118,110 165,81" />
<polygon fill="#f0f0f0" fill-opacity="0.501961" points="55,195 -16,237 158,302" />
<polygon fill="#6463ff" fill-opacity="0.501961" points="172,52 132,80 212,71" />
<polygon fill="#efeff0" fill-opacity="0.501961" points="-16,-16 70,86 156,13" />
<polygon fill="#64ff64" fill-opacity="0.501961" points="221,142 179,193 219,169" />
<polygon fill="#6263ff" fill-opacity="0.501961" points="250,163 248,132 199,205" />
<polygon fill="#62ff63" fill-opacity="0.501961" points="98,197 128,216 161,200" />
<polygon fill="#ff6464" fill-opacity="0.501961" points="120,111 101,142 107,173" />
<polygon fill="#6464ff" fill-opacity="0.501961" points="89,99 183,56 97,65" />
<polygon fill="#f2f2f1" fill-opacity="0.501961" points="259,179 237,234 171,276" />
<polygon fill="#6464ff" fill-opacity="0.501961" points="127,234 184,244 187,212" />
<polygon fill="#ff5f64" fill-opacity="0.501961" points="110,179 125,192 146,180" />
<polygon fill="#605eff" fill-opacity="0.501961" points="157,50 112,68 133,50" />
<polygon fill="#fefcf0" fill-opacity="0.501961" points="137,41 129,50 170,49" />
</g>
</svg>