<svg xmlns="http://www.w3.org/2000/svg" version="1.1" width="1024" height="1024">
<rect x="0" y="0" width="1024" height="1024" fill="#ccccda" />
<g transform="scale(3.413333) translate(0.5 0.5)">
<polygon fill="#86713e" fill-opacity="0.501961" points="73,59 108,261 272,128" />
<polygon fill="#1439ff" fill-opacity="0.501961" points="257,120 183,46 83,64" />
<polygon fill="#1138ff" fill-opacity="0.501961" points="217,234 260,142 113,253" />
<polygon fill="#1336ff" fill-opacity="0.501961" points="70,75 114,255 48,177" />
<polygon fill="#ff6239" fill-opacity="0.501961" points="202,208 170,76 77,167" />
<polygon fill="#ffffff" fill-opacity="0.501961" points="-15,203 3,315 315,295" />
<polygon fill="#ffffff" fill-opacity="0.501961" points="291,315 207,-16 315,3" />
<polygon fill="#3d3dff" fill-opacity="0.501961" points="202,57 252,127 235,209" />
<polygon fill="#33ff48" fill-opacity="0.501961" points="97,99 154,73 217,107" />
<polygon fill="#ffffff" fill-opacity="0.501961" points="-16,-4 -16,163 197,-16" />
<polygon fill="#32ff4a" fill-opacity="0.501961" points="186,219 117,219 223,167" />
<polygon fill="#30ff50" fill-opacity="0.501961" points="72,154 101,97 107,212" />
<polygon fill="#3e3cff" fill-opacity="0.501961" points="161,44 78,76 49,149" />
<polygon fill="#463fff" fill-opacity="0.501961" points="58,185 195,247 115,247" />
<polygon fill="#fffffb" fill-opacity="0.501961" points="292,149 123,315 315,314" />
<polygon fill="#fffff8" fill-opacity="0.501961" points="27,1 315,102 303,-16" />
<polygon fill="#fffffa" fill-opacity="0.501961" points="4,-16 72,243 -5,315" />
<polygon fill="#34ff47" fill-opacity="0.501961" points="223,132 211,192 185,87" />
<polygon fill="#ff4f5f" fill-opacity="0.501961" points="135,207 106,110 207,133" />
<polygon fill="#43ff4d" fill-opacity="0.501961" points="180,217 81,171 114,213" />
<polygon fill="#4cff55" fill-opacity="0.501961" points="108,91 157,77 78,147" />
<polygon fill="#5e50ff" fill-opacity="0.501961" points="74,218 86,73 51,127" />
<polygon fill="#58ff57" fill-opacity="0.501961" points="166,219 209,192 220,131" />
<polygon fill="#5c59ff" fill-opacity="0.501961" points="178,53 247,119 248,183" />
<polygon fill="#5e53ff" fill-opacity="0.501961" points="160,251 94,234 237,202" />
<polygon fill="#5e58ff" fill-opacity="0.501961" points="203,65 121,51 64,99" />
<polygon fill="#ff545e" fill-opacity="0.501961" points="118,108 199,167 189,113" />
<polygon fill="#5aff60" fill-opacity="0.501961" points="222,153 206,102 149,75" />
<polygon fill="#5aff5c" fill-opacity="0.501961" points="138,221 83,172 81,131" />
<polygon fill="#605bff" fill-opacity="0.501961" points="246,184 223,116 213,233" />
<polygon fill="#ff5b65" fill-opacity="0.501961" points="122,194 202,166 102,127" />
<polygon fill="#f9f9f3" fill-opacity="0.501961" points="219,15 315,131 266,193" />
<polygon fill="#f9f9f3" fill-opacity="0.501961" points="13,302 73,224 225,295" />
<polygon fill="#5e5dff" fill-opacity="0.501961" points="91,232 59,196 180,232" />
<polygon fill="#ff5261" fill-opacity="0.501961" points="177,196 201,143 139,199" />
<polygon fill="#f7f7f3" fill-opacity="0.501961" points="-4,243 -3,-9 98,27" />
<polygon fill="#f5f5f2" fill-opacity="0.501961" points="267,203 97,287 315,289" />
<polygon fill="#6054ff" fill-opacity="0.501961" points="239,97 213,71 138,74" />
<polygon fill="#6265ff" fill-opacity="0.501961" points="137,51 55,110 50,165" />
<polygon fill="#f9f9f5" fill-opacity="0.501961" points="74,41 219,57 229,-16" />
<polygon fill="#ff5660" fill-opacity="0.501961" points="129,101 98,145 170,102" />
<polygon fill="#60ff61" fill-opacity="0.501961" points="179,84 121,82 218,123" />
<polygon fill="#5fff64" fill-opacity="0.501961" points="203,105 222,159 195,208" />
<polygon fill="#5fff64" fill-opacity="0.501961" points="88,109 139,79 79,164" />
<polygon fill="#63ff63" fill-opacity="0.501961" points="160,221 113,207 210,189" />
<polygon fill="#6159ff" fill-opacity="0.501961" points="133,249 239,173 193,242" />
<polygon fill="#ff5163" fill-opacity="0.501961" points="134,198 101,160 104,130" />
<polygon fill="#645aff" fill-opacity="0.501961" points="95,223 74,132 55,181" />
<polygon fill="#5c5aff" fill-opacity="0.501961" points="89,70 113,57 83,125" />
<polygon fill="#fffff7" fill-opacity="0.501961" points="87,41 62,92 125,41" />
</g>
</svg>